<svg width="24" height="24" viewBox="0 0 24 24" fill="none" xmlns="http://www.w3.org/2000/svg">
<path d="M18.364 8.04964L17.657 7.34264C16.318 6.00333 14.5472 5.18249 12.6598 5.02617C10.7724 4.86985 8.89077 5.3882 7.34966 6.48897C5.80855 7.58975 4.70794 9.20157 4.24365 11.0376C3.77936 12.8737 3.98151 14.815 4.81412 16.516C5.64674 18.217 7.05583 19.5675 8.79067 20.3271C10.5255 21.0868 12.4736 21.2063 14.2883 20.6645C16.103 20.1226 17.6666 18.9546 18.701 17.3681C19.7353 15.7817 20.1733 13.8797 19.937 12.0006M18.364 8.04964L14.121 8.05064M18.364 8.04964V3.80664" stroke="black" stroke-width="2" stroke-linecap="round" stroke-linejoin="round"/>
</svg>
