<svg width="24" height="24" viewBox="0 0 24 24" fill="none" xmlns="http://www.w3.org/2000/svg">
<path d="M21.7009 18.8443L21.1384 14.1756C21.1196 14.0209 20.9298 13.9552 20.8196 14.0654L19.4298 15.4576L13.0712 9.10134C12.9235 8.95603 12.6868 8.95603 12.5415 9.10134L10.1555 11.4849L3.67039 4.99978C3.63515 4.96489 3.58756 4.94531 3.53796 4.94531C3.48837 4.94531 3.44078 4.96489 3.40554 4.99978L2.35086 6.05916C2.31596 6.0944 2.29639 6.14199 2.29639 6.19158C2.29639 6.24117 2.31596 6.28876 2.35086 6.324L9.8907 13.8685C10.036 14.0162 10.2751 14.0162 10.4204 13.8685L12.8063 11.4849L18.1055 16.7818L16.7157 18.1717C16.6909 18.1966 16.6736 18.2279 16.6658 18.2622C16.6579 18.2964 16.6599 18.3322 16.6713 18.3654C16.6828 18.3986 16.7034 18.4279 16.7307 18.45C16.758 18.4721 16.791 18.4861 16.8259 18.4904L21.4946 19.0529C21.6141 19.0693 21.7173 18.9662 21.7009 18.8443Z" fill="black"/>
</svg>
