<svg width="24" height="24" viewBox="0 0 24 24" fill="none" xmlns="http://www.w3.org/2000/svg">
<path d="M18.8438 2.29866L14.1751 2.86116C14.0204 2.87991 13.9548 3.06975 14.0649 3.17991L15.4571 4.56975L9.10086 10.9283C8.95554 11.076 8.95554 11.3127 9.10086 11.458L11.4844 13.844L4.99929 20.3291C4.9644 20.3644 4.94482 20.412 4.94482 20.4615C4.94482 20.5111 4.9644 20.5587 4.99929 20.594L6.05867 21.6487C6.09391 21.6836 6.1415 21.7031 6.19109 21.7031C6.24068 21.7031 6.28827 21.6836 6.32351 21.6487L13.868 14.1088C14.0157 13.9635 14.0157 13.7244 13.868 13.5791L11.4844 11.1932L16.7813 5.89397L18.1712 7.28381C18.1961 7.3086 18.2274 7.32589 18.2617 7.33374C18.2959 7.34158 18.3317 7.33965 18.3649 7.32817C18.3981 7.3167 18.4274 7.29613 18.4495 7.26882C18.4716 7.2415 18.4856 7.20853 18.4899 7.17366L19.0524 2.50491C19.0688 2.38538 18.9657 2.28225 18.8438 2.29866Z" fill="black"/>
</svg>
