<svg width="24" height="24" viewBox="0 0 24 24" fill="none" xmlns="http://www.w3.org/2000/svg">
<path d="M15.5 10C15.1022 10 14.7206 9.84196 14.4393 9.56066C14.158 9.27936 14 8.89782 14 8.5M8.5 10C8.89782 10 9.27936 9.84196 9.56066 9.56066C9.84196 9.27936 10 8.89782 10 8.5M14 2V2.643C14 3.23 14 3.523 14.065 3.773C14.1429 4.06975 14.2881 4.34458 14.4892 4.57625C14.6904 4.80792 14.9421 4.9902 15.225 5.109C15.462 5.209 15.752 5.25 16.333 5.333C17.495 5.499 18.076 5.583 18.551 5.783C19.1164 6.02084 19.6195 6.38552 20.0214 6.84884C20.4234 7.31216 20.7134 7.86171 20.869 8.455C21 8.954 21 9.54 21 10.714V22M10 2V2.643C10 3.23 10 3.523 9.935 3.773C9.85707 4.06975 9.71192 4.34458 9.51077 4.57625C9.30962 4.80792 9.05787 4.9902 8.775 5.109C8.538 5.209 8.248 5.25 7.667 5.333C6.505 5.499 5.924 5.583 5.449 5.783C4.88355 6.02062 4.38032 6.38509 3.97821 6.84823C3.5761 7.31138 3.28589 7.86079 3.13 8.454C3 8.954 3 9.54 3 10.714V22M12 13V22" stroke="black" stroke-width="1.5" stroke-linecap="round" stroke-linejoin="round"/>
<path d="M18 11.5C18 11.5 17.455 14.364 17.503 17.227C17.535 19.127 18 22 18 22M6 11.5C6 11.5 6.545 14.364 6.497 17.227C6.465 19.127 6 22 6 22" stroke="black" stroke-width="1.5" stroke-linecap="round" stroke-linejoin="round"/>
</svg>
