<svg width="24" height="24" viewBox="0 0 24 24" fill="none" xmlns="http://www.w3.org/2000/svg">
<path d="M14 16.333C14 13.8824 12.6044 11.1929 11.1191 9.04492C10.37 7.96841 9.54929 6.94378 8.66602 5.97461C7.78266 6.94361 6.9642 7.97036 6.21484 9.04688C4.72957 11.1921 3.33304 13.8811 3.33301 16.333C3.33301 17.7475 3.89531 19.1043 4.89551 20.1045C5.89569 21.1046 7.25257 21.666 8.66699 21.666C10.0812 21.6659 11.4374 21.1044 12.4375 20.1045C13.4377 19.1043 14 17.7475 14 16.333ZM15.333 16.333C15.333 17.2085 15.1612 18.0759 14.8262 18.8848C14.4912 19.6934 13.9998 20.4279 13.3809 21.0469C12.7618 21.6659 12.0266 22.1572 11.2178 22.4922C10.4091 22.8272 9.54233 23 8.66699 23C6.89888 23 5.20239 22.2971 3.95215 21.0469C2.70212 19.7967 2 18.1009 2 16.333C2.00003 13.4504 3.60415 10.4734 5.12012 8.28809C5.97049 7.06426 6.90716 5.90205 7.92285 4.81152L8.12109 4.60352L8.19336 4.5293L8.19434 4.52832L8.2959 4.44434C8.33207 4.42014 8.37074 4.39957 8.41113 4.38281C8.49212 4.34921 8.57931 4.33203 8.66699 4.33203C8.75446 4.33207 8.84107 4.34933 8.92188 4.38281C9.00287 4.41642 9.07674 4.46624 9.13867 4.52832L8.66699 5L9.13965 4.53027V4.53223L9.41113 4.81348C10.427 5.90295 11.3641 7.06338 12.2148 8.28613C13.7295 10.4741 15.333 13.4517 15.333 16.333Z" fill="black"/>
<path d="M14 16.333C14 13.8824 12.6044 11.1929 11.1191 9.04492C10.37 7.96841 9.54929 6.94378 8.66602 5.97461C7.78266 6.94361 6.9642 7.97036 6.21484 9.04688C4.72957 11.1921 3.33304 13.8811 3.33301 16.333C3.33301 17.7475 3.89531 19.1043 4.89551 20.1045C5.89569 21.1046 7.25257 21.666 8.66699 21.666C10.0812 21.6659 11.4374 21.1044 12.4375 20.1045C13.4377 19.1043 14 17.7475 14 16.333ZM15.333 16.333C15.333 17.2085 15.1612 18.0759 14.8262 18.8848C14.4912 19.6934 13.9998 20.4279 13.3809 21.0469C12.7618 21.6659 12.0266 22.1572 11.2178 22.4922C10.4091 22.8272 9.54233 23 8.66699 23C6.89888 23 5.20239 22.2971 3.95215 21.0469C2.70212 19.7967 2 18.1009 2 16.333C2.00003 13.4504 3.60415 10.4734 5.12012 8.28809C5.97049 7.06426 6.90716 5.90205 7.92285 4.81152L8.12109 4.60352L8.19336 4.5293L8.19434 4.52832L8.2959 4.44434C8.33207 4.42014 8.37074 4.39957 8.41113 4.38281C8.49212 4.34921 8.57931 4.33203 8.66699 4.33203C8.75446 4.33207 8.84107 4.34933 8.92188 4.38281C9.00287 4.41642 9.07674 4.46624 9.13867 4.52832L8.66699 5L9.13965 4.53027V4.53223L9.41113 4.81348C10.427 5.90295 11.3641 7.06338 12.2148 8.28613C13.7295 10.4741 15.333 13.4517 15.333 16.333Z" stroke="black"/>
<path d="M14.6667 4.99996H22.6667M18.6667 1V8.99991" stroke="black" stroke-linecap="round" stroke-linejoin="round"/>
</svg>
