<svg width="24" height="24" viewBox="0 0 24 24" fill="none" xmlns="http://www.w3.org/2000/svg">
<path d="M3.28048 4.4917C4.36211 3.46107 5.80391 2.89432 7.29783 2.91254C8.79175 2.93075 10.2193 3.5325 11.2755 4.5892L12 5.31445L12.645 4.66945C13.5833 3.72956 14.8172 3.14212 16.1383 3.00625C17.4595 2.87038 18.7871 3.19439 19.8971 3.92362C21.0071 4.65285 21.8316 5.74265 22.2314 7.00914C22.6313 8.27564 22.582 9.6413 22.092 10.8757H20.4315C20.9484 9.97764 21.1212 8.92225 20.9177 7.90622C20.7141 6.89019 20.1481 5.98284 19.325 5.35326C18.502 4.72368 17.4781 4.41484 16.4442 4.48428C15.4103 4.55372 14.4369 4.99672 13.7055 5.7307L12.5302 6.90595C12.3896 7.04655 12.1988 7.12554 12 7.12554C11.8011 7.12554 11.6104 7.04655 11.4697 6.90595L10.2142 5.65045C9.48117 4.91468 8.50268 4.47483 7.46578 4.41498C6.42888 4.35513 5.40629 4.67948 4.59344 5.32602C3.78059 5.97257 3.2345 6.89598 3.05953 7.91976C2.88456 8.94354 3.09299 9.9959 3.64498 10.8757H1.95748C1.50201 9.8036 1.38457 8.61803 1.62084 7.4774C1.85711 6.33677 2.43585 5.29541 3.27973 4.49245M17.0302 14.6257H19.1002L12.5422 21.5182C12.4718 21.5921 12.3871 21.6509 12.2931 21.6909C12.1992 21.731 12.0981 21.7514 11.996 21.751C11.8939 21.7506 11.793 21.7293 11.6994 21.6885C11.6058 21.6477 11.5215 21.5882 11.4517 21.5137L4.99573 14.6257H6.85648C6.91948 14.6257 6.98173 14.6227 7.04323 14.6167L12.0037 19.9087L17.0302 14.6257ZM9.66973 8.66545C9.60954 8.54542 9.51824 8.44375 9.40535 8.37105C9.29247 8.29835 9.16213 8.25729 9.02795 8.25215C8.89378 8.24702 8.76069 8.278 8.64257 8.34186C8.52446 8.40572 8.42565 8.50012 8.35648 8.6152L6.32398 12.0007H2.00098C1.80206 12.0007 1.6113 12.0797 1.47065 12.2204C1.32999 12.361 1.25098 12.5518 1.25098 12.7507C1.25098 12.9496 1.32999 13.1404 1.47065 13.281C1.6113 13.4217 1.80206 13.5007 2.00098 13.5007H6.74998C6.87939 13.5007 7.0066 13.4672 7.11923 13.4034C7.23186 13.3397 7.32608 13.2479 7.39273 13.137L8.93998 10.5585L11.3295 15.336C11.3871 15.4511 11.4733 15.5495 11.58 15.6216C11.6866 15.6938 11.8101 15.7373 11.9384 15.7479C12.0667 15.7585 12.1956 15.7359 12.3126 15.6823C12.4297 15.6287 12.531 15.5458 12.6067 15.4417L15.135 11.9647L16.77 13.3267C16.9047 13.4391 17.0746 13.5006 17.25 13.5007H21.75C21.9489 13.5007 22.1397 13.4217 22.2803 13.281C22.421 13.1404 22.5 12.9496 22.5 12.7507C22.5 12.5518 22.421 12.361 22.2803 12.2204C22.1397 12.0797 21.9489 12.0007 21.75 12.0007H17.5215L15.48 10.2997C15.4011 10.234 15.3096 10.1851 15.2111 10.1562C15.1126 10.1273 15.0092 10.1189 14.9073 10.1315C14.8054 10.1442 14.7073 10.1776 14.6188 10.2298C14.5304 10.2819 14.4536 10.3517 14.3932 10.4347L12.1192 13.5622L9.66973 8.66545Z" fill="black"/>
</svg>
