<svg width="26" height="26" viewBox="0 0 26 26" fill="none" xmlns="http://www.w3.org/2000/svg">
<path d="M1 7C1 3.68629 3.68629 1 7 1H19C22.3137 1 25 3.68629 25 7V19C25 22.3137 22.3137 25 19 25H7C3.68629 25 1 22.3137 1 19V7Z" stroke="#696969" stroke-width="2"/>
<path d="M12.9824 17.0674C13.2948 17.3777 13.8037 17.3776 14.1162 17.0674L21.0645 10.1621C21.378 9.8506 21.378 9.34178 21.0645 9.03027C20.752 8.71986 20.2431 8.71986 19.9307 9.03027L13.5488 15.3691L7.07031 8.93262C6.75784 8.62233 6.24896 8.62227 5.93652 8.93262C5.78081 9.08731 5.7002 9.29443 5.7002 9.49902C5.70027 9.70409 5.77645 9.90828 5.93652 10.0674L12.9824 17.0674Z" fill="#696969" stroke="#696969" stroke-width="0.6"/>
</svg>
