<svg width="24" height="24" viewBox="0 0 24 24" fill="none" xmlns="http://www.w3.org/2000/svg">
<path d="M12 0C5.31429 0 0 5.31429 0 12C0 18.6857 5.31429 24 12 24C18.6857 24 24 18.6857 24 12C24 5.31429 18.6857 0 12 0ZM12 22.2857C6.34286 22.2857 1.71429 17.6571 1.71429 12C1.71429 6.34286 6.34286 1.71429 12 1.71429C17.6571 1.71429 22.2857 6.34286 22.2857 12C22.2857 17.6571 17.6571 22.2857 12 22.2857Z" fill="black"/>
<path d="M16.3424 17.7148L11.7139 13.0863L7.0853 17.7148L5.71387 16.3434L10.3424 11.7148L5.71387 7.08627L7.0853 5.71484L11.7139 10.3434L16.3424 5.71484L17.7139 7.08627L13.0853 11.7148L17.7139 16.3434L16.3424 17.7148Z" fill="black"/>
</svg>
