<svg width="24" height="24" viewBox="0 0 24 24" fill="none" xmlns="http://www.w3.org/2000/svg">
<path d="M4.293 20.2924C4.15312 20.4322 4.05785 20.6104 4.01924 20.8044C3.98063 20.9984 4.00041 21.1995 4.07609 21.3822C4.15177 21.565 4.27994 21.7211 4.4444 21.831C4.60885 21.9409 4.80221 21.9996 5 21.9996C5.19779 21.9996 5.39115 21.9409 5.5556 21.831C5.72006 21.7211 5.84823 21.565 5.92391 21.3822C5.99959 21.1995 6.01937 20.9984 5.98076 20.8044C5.94215 20.6104 5.84688 20.4322 5.707 20.2924C5.51947 20.1049 5.26516 19.9996 5 19.9996C4.73484 19.9996 4.48053 20.1049 4.293 20.2924ZM1.293 17.2924C1.15312 17.4322 1.05785 17.6104 1.01924 17.8044C0.980628 17.9984 1.00041 18.1995 1.07609 18.3822C1.15177 18.565 1.27994 18.7211 1.4444 18.831C1.60885 18.9409 1.80221 18.9996 2 18.9996C2.19779 18.9996 2.39115 18.9409 2.5556 18.831C2.72006 18.7211 2.84823 18.565 2.92391 18.3822C2.99959 18.1995 3.01937 17.9984 2.98076 17.8044C2.94215 17.6104 2.84688 17.4322 2.707 17.2924C2.51947 17.1049 2.26516 16.9996 2 16.9996C1.73484 16.9996 1.48053 17.1049 1.293 17.2924ZM5.293 16.2924C5.15312 16.4322 5.05785 16.6104 5.01924 16.8044C4.98063 16.9984 5.00041 17.1995 5.07609 17.3822C5.15177 17.565 5.27994 17.7211 5.4444 17.831C5.60885 17.9409 5.80221 17.9996 6 17.9996C6.19779 17.9996 6.39115 17.9409 6.5556 17.831C6.72006 17.7211 6.84823 17.565 6.92391 17.3822C6.99959 17.1995 7.01937 16.9984 6.98076 16.8044C6.94215 16.6104 6.84688 16.4322 6.707 16.2924C6.51947 16.1049 6.26516 15.9996 6 15.9996C5.73484 15.9996 5.48053 16.1049 5.293 16.2924ZM16.15 2.00138C15.2042 1.97232 14.2622 2.13351 13.3798 2.47538C12.4975 2.81724 11.6928 3.33283 11.0134 3.99155C10.3341 4.65027 9.79398 5.43872 9.42509 6.31011C9.05621 7.18151 8.86609 8.11812 8.866 9.06438V9.08038L7.096 12.8384C7.02381 12.9908 6.99135 13.159 7.00164 13.3274C7.01193 13.4957 7.06464 13.6588 7.15485 13.8013C7.24507 13.9438 7.36987 14.0611 7.51763 14.1425C7.6654 14.2238 7.83133 14.2664 8 14.2664H8.866V16.0664C8.86653 16.5791 9.07049 17.0706 9.4331 17.433C9.79571 17.7954 10.2873 17.9991 10.8 17.9994H11.667V19.7994C11.667 20.0646 11.7724 20.319 11.9599 20.5065C12.1474 20.694 12.4018 20.7994 12.667 20.7994C12.9322 20.7994 13.1866 20.694 13.3741 20.5065C13.5616 20.319 13.667 20.0646 13.667 19.7994V17.9854C13.925 17.969 14.1665 17.8528 14.3402 17.6613C14.514 17.4699 14.6063 17.2182 14.5975 16.9599C14.5888 16.7015 14.4798 16.4566 14.2935 16.2773C14.1073 16.098 13.8585 15.9983 13.6 15.9994L12.767 16.0194C12.734 16.011 12.7007 16.0043 12.667 15.9994C12.6238 16.0052 12.5811 16.0139 12.539 16.0254L10.866 16.0654V13.2654C10.866 13.0002 10.7606 12.7458 10.5731 12.5583C10.3856 12.3707 10.1312 12.2654 9.866 12.2654H9.577L10.782 9.70738C10.851 9.56134 10.8836 9.40076 10.877 9.23938L10.867 9.06538C10.8649 8.38716 11 7.71552 11.2641 7.09084C11.5282 6.46617 11.916 5.90136 12.404 5.43038C12.8924 4.95886 13.47 4.58958 14.1029 4.3442C14.7359 4.09882 15.4114 3.98227 16.09 4.00138C17.4357 4.08609 18.6969 4.68629 19.6114 5.67714C20.5259 6.66799 21.0232 7.97322 21 9.32138L19.167 16.3084C19.1207 16.4833 19.1228 16.6675 19.173 16.8414L20.105 20.0764C20.1651 20.2848 20.2913 20.4681 20.4647 20.5985C20.638 20.7289 20.8491 20.7994 21.066 20.7994C21.1601 20.7992 21.2537 20.7857 21.344 20.7594C21.5985 20.6857 21.8133 20.5141 21.9414 20.2822C22.0694 20.0502 22.1002 19.777 22.027 19.5224L21.171 16.5524L22.967 9.78938C22.9891 9.70551 23.0002 9.61911 23 9.53238V9.32038C23.0204 7.45318 22.3195 5.65014 21.0434 4.28688C19.7673 2.92362 18.0145 2.10429 16.15 2.00138Z" fill="black"/>
</svg>
