<svg width="24" height="24" viewBox="0 0 24 24" fill="none" xmlns="http://www.w3.org/2000/svg">
<path d="M6 8.85C6 7.29848 6.61634 5.81051 7.71343 4.71343C8.81051 3.61634 10.2985 3 11.85 3C13.4015 3 14.8895 3.61634 15.9866 4.71343C17.0837 5.81051 17.7 7.29848 17.7 8.85C17.7 14.25 12.3 14.25 12.3 17.85C12.3 18.2637 12.2185 18.6733 12.0602 19.0555C11.9019 19.4376 11.6699 19.7849 11.3774 20.0774C11.0849 20.3699 10.7376 20.6019 10.3555 20.7602C9.97328 20.9185 9.56366 21 9.15 21C8.73634 21 8.32672 20.9185 7.94455 20.7602C7.56237 20.6019 7.21512 20.3699 6.92261 20.0774C6.63011 19.7849 6.39808 19.4376 6.23978 19.0555C6.08148 18.6733 6 18.2637 6 17.85" stroke="black" stroke-width="2" stroke-linecap="round" stroke-linejoin="round"/>
<path d="M14.1001 8.84961C14.1001 8.25287 13.863 7.68058 13.4411 7.25862C13.0191 6.83666 12.4468 6.59961 11.8501 6.59961C11.2534 6.59961 10.6811 6.83666 10.2591 7.25862C9.83715 7.68058 9.6001 8.25287 9.6001 8.84961V9.74961C10.0775 9.74961 10.5353 9.93925 10.8729 10.2768C11.2105 10.6144 11.4001 11.0722 11.4001 11.5496C11.4001 12.027 11.2105 12.4848 10.8729 12.8224C10.5353 13.16 10.0775 13.3496 9.6001 13.3496" stroke="black" stroke-width="2" stroke-linecap="round" stroke-linejoin="round"/>
</svg>
