<svg width="24" height="24" viewBox="0 0 24 24" fill="none" xmlns="http://www.w3.org/2000/svg">
<path d="M15.7125 19.0885C14.5676 19.6898 13.2932 20.0026 12 20C7.5815 20 4 16.4185 4 12C4 7.5815 7.5815 4 12 4C16.4185 4 20 7.5815 20 12C20 12.0833 19.9987 12.1667 19.996 12.25H20.9965C20.9988 12.1667 21 12.0833 21 12C21 7.0295 16.9705 3 12 3C7.0295 3 3 7.0295 3 12C3 16.9705 7.0295 21 12 21C13.4598 21.0027 14.8981 20.6482 16.1895 19.9675L15.7125 19.0885Z" fill="black"/>
<path d="M6.8717 11.6747C6.8117 12.0437 7.0622 12.3972 7.4037 12.6162C7.7607 12.8447 8.2697 12.9697 8.8687 12.8812C9.13635 12.8447 9.39316 12.7516 9.62199 12.608C9.85081 12.4645 10.0464 12.2738 10.1957 12.0487C10.4477 11.6667 10.5512 11.2022 10.4357 10.8577C10.4223 10.8179 10.3991 10.7821 10.3682 10.7536C10.3373 10.7252 10.2998 10.705 10.259 10.6949C10.2183 10.6847 10.1756 10.6851 10.135 10.6958C10.0944 10.7065 10.0572 10.7273 10.0267 10.7562C9.1287 11.6082 8.1147 11.8177 7.2057 11.4802C7.17102 11.4673 7.13391 11.4622 7.09705 11.4654C7.06018 11.4686 7.02449 11.4799 6.99254 11.4986C6.96058 11.5172 6.93317 11.5428 6.91227 11.5733C6.89138 11.6038 6.87752 11.6381 6.8717 11.6747ZM16.9097 11.6747C16.9692 12.0437 16.7187 12.3972 16.3772 12.6162C16.0202 12.8447 15.5117 12.9697 14.9122 12.8812C14.6446 12.8446 14.3879 12.7515 14.1592 12.6079C13.9304 12.4644 13.7349 12.2737 13.5857 12.0487C13.3337 11.6667 13.2297 11.2022 13.3457 10.8577C13.3591 10.8179 13.3823 10.7821 13.4132 10.7536C13.4441 10.7252 13.4816 10.705 13.5224 10.6949C13.5631 10.6847 13.6058 10.6851 13.6464 10.6958C13.687 10.7065 13.7242 10.7273 13.7547 10.7562C14.6527 11.6082 15.6667 11.8177 16.5757 11.4802C16.6104 11.4673 16.6475 11.4622 16.6844 11.4654C16.7212 11.4686 16.7569 11.4799 16.7889 11.4986C16.8208 11.5172 16.8482 11.5428 16.8691 11.5733C16.89 11.6038 16.9039 11.6381 16.9097 11.6747ZM20.0002 15.9997C20.0002 16.5301 19.7895 17.0388 19.4144 17.4139C19.0393 17.7889 18.5306 17.9997 18.0002 17.9997C17.4698 17.9997 16.9611 17.7889 16.586 17.4139C16.2109 17.0388 16.0002 16.5301 16.0002 15.9997C16.0002 14.2497 18.0002 12.4997 18.0002 12.4997C18.0002 12.4997 20.0002 14.2497 20.0002 15.9997ZM10.4002 16.7997C11.2002 15.7332 12.8002 15.7332 13.6002 16.7997C13.6798 16.9057 13.7982 16.9759 13.9295 16.9946C14.0608 17.0134 14.1941 16.9792 14.3002 16.8997C14.4063 16.8201 14.4764 16.7016 14.4952 16.5704C14.5139 16.4391 14.4798 16.3057 14.4002 16.1997C13.2002 14.5997 10.8002 14.5997 9.6002 16.1997C9.52063 16.3057 9.48647 16.4391 9.50522 16.5704C9.52398 16.7016 9.59411 16.8201 9.7002 16.8997C9.80628 16.9792 9.93963 17.0134 10.0709 16.9946C10.2022 16.9759 10.3206 16.9057 10.4002 16.7997Z" fill="black"/>
</svg>
