<svg width="24" height="24" viewBox="0 0 24 24" fill="none" xmlns="http://www.w3.org/2000/svg">
<g clip-path="url(#clip0_446_3309)">
<mask id="mask0_446_3309" style="mask-type:luminance" maskUnits="userSpaceOnUse" x="0" y="0" width="24" height="24">
<path d="M24 0H0V24H24V0Z" fill="white"/>
</mask>
<g mask="url(#mask0_446_3309)">
<path d="M4.8584 4.8584C8.80272 0.914103 15.1973 0.914101 19.1416 4.8584C23.0859 8.80267 23.0859 15.1973 19.1416 19.1416C15.1974 23.0859 8.80267 23.0859 4.8584 19.1416C0.914106 15.1973 0.914106 8.80267 4.8584 4.8584ZM18.293 5.70703C14.8173 2.23135 9.18268 2.23135 5.70703 5.70703C5.7059 5.70816 5.70426 5.70883 5.70312 5.70996L6.60645 5.41992C8.96343 4.66252 10.7233 7.61337 8.93652 9.32715C8.18845 10.0449 8.71559 11.3072 9.75195 11.2793L10.2686 11.2646C11.4482 11.2328 12.4938 12.0198 12.79 13.1621L13.5449 16.0752C13.6955 16.013 13.836 15.9426 13.9697 15.8701C13.7223 15.66 13.5368 15.3745 13.4531 15.04L12.7461 12.2109C12.532 11.3538 13.053 10.4848 13.9102 10.2705C14.7673 10.0564 15.6363 10.5784 15.8506 11.4355L16.2295 12.9521L17.1807 12.8799C17.7255 12.838 18.2537 13.0769 18.582 13.5137C18.9103 13.9506 18.9937 14.5254 18.8018 15.0371C18.3073 16.3552 16.4883 19.1608 12.5303 19.6006C11.7344 19.689 10.996 19.1754 10.8018 18.3984L10.4814 17.1211L9.20605 17.4414C8.34883 17.6557 7.47998 17.1345 7.26562 16.2773C7.0513 15.4201 7.57256 14.5513 8.42969 14.3369L11.2588 13.6299C11.3927 13.5964 11.527 13.5811 11.6592 13.582L11.6289 13.4629C11.4729 12.8617 10.9217 12.4481 10.3008 12.4648L9.78418 12.4785C7.65142 12.5359 6.56592 9.93799 8.10547 8.46094C8.97362 7.62826 8.11888 6.19453 6.97363 6.5625L4.38184 7.39551C2.3091 10.8187 2.75083 15.3368 5.70703 18.293C9.18268 21.7687 14.8173 21.7687 18.293 18.293C21.7687 14.8173 21.7687 9.18268 18.293 5.70703ZM14.2012 11.4355C13.9869 11.4891 13.8568 11.7057 13.9102 11.9199L14.6172 14.749C14.6646 14.9381 14.8417 15.0657 15.0361 15.0508L15.2705 15.0322C15.5232 15.0128 15.7608 15.1545 15.8643 15.3857C15.9546 15.5882 15.9253 15.8217 15.7939 15.9941L15.7314 16.0645C15.1465 16.6235 14.333 17.1539 13.249 17.4395C13.094 17.4802 12.929 17.4566 12.791 17.375C12.6531 17.2934 12.5536 17.1603 12.5146 17.0049L12.0342 15.085C11.9806 14.8708 11.764 14.7406 11.5498 14.7939L8.7207 15.501C8.50653 15.5547 8.37612 15.7721 8.42969 15.9863C8.4833 16.2005 8.70078 16.3309 8.91504 16.2773L10.7734 15.8125C10.9277 15.774 11.0911 15.7981 11.2275 15.8799L11.3223 15.9502C11.4094 16.0293 11.472 16.1331 11.501 16.249L11.9658 18.1074C12.0144 18.3015 12.1986 18.4302 12.3975 18.4082C15.7723 18.0332 17.2885 15.6533 17.6777 14.6152C17.7257 14.4873 17.7051 14.3436 17.623 14.2344C17.5409 14.1253 17.4086 14.0657 17.2725 14.0762L15.8164 14.1885C15.5247 14.2108 15.2594 14.0192 15.1885 13.7354L14.6865 11.7266C14.633 11.5123 14.4155 11.382 14.2012 11.4355ZM16.8789 9.10059C17.6989 8.28063 19.0286 8.28074 19.8486 9.10059C20.6687 9.92066 20.6686 11.2502 19.8486 12.0703C19.0286 12.8904 17.699 12.8904 16.8789 12.0703C16.0591 11.2502 16.0589 9.9206 16.8789 9.10059ZM19 9.94922C18.6486 9.59802 18.079 9.59789 17.7275 9.94922C17.3761 10.3007 17.3761 10.8712 17.7275 11.2227C18.0789 11.5738 18.6486 11.5736 19 11.2227C19.3515 10.8712 19.3515 10.3007 19 9.94922Z" fill="#0F0F0F" stroke="black" stroke-width="0.2"/>
</g>
</g>
<defs>
<clipPath id="clip0_446_3309">
<rect width="24" height="24" fill="white"/>
</clipPath>
</defs>
</svg>
