<svg width="19" height="24" viewBox="0 0 19 24" fill="none" xmlns="http://www.w3.org/2000/svg">
<path d="M13.3632 1.39286C13.3632 1.27827 13.3994 1.18415 13.4719 1.11049C13.5443 1.03683 13.6369 1 13.7496 1H17.2272C17.4365 1 17.6176 1.07775 17.7706 1.23326C17.9235 1.38876 18 1.57292 18 1.78571V5.32143C18 5.43601 17.9638 5.53013 17.8913 5.60379C17.8189 5.67746 17.7263 5.71429 17.6136 5.71429H16.8408C16.7281 5.71429 16.6355 5.67746 16.5631 5.60379C16.4906 5.53013 16.4544 5.43601 16.4544 5.32143V3.67634L13.3874 6.80692C14.4017 8.10007 14.9088 9.5692 14.9088 11.2143C14.9088 13.0231 14.3151 14.5965 13.1277 15.9347C11.9404 17.2729 10.4733 18.0402 8.72642 18.2366V19.8571H9.88561C9.99831 19.8571 10.0909 19.894 10.1633 19.9676C10.2358 20.0413 10.272 20.1354 10.272 20.25V21.0357C10.272 21.1503 10.2358 21.2444 10.1633 21.3181C10.0909 21.3917 9.99831 21.4286 9.88561 21.4286H8.72642V22.6071C8.72642 22.7217 8.69019 22.8158 8.61774 22.8895C8.54529 22.9632 8.45272 23 8.34002 23H7.56722C7.45452 23 7.36194 22.9632 7.28949 22.8895C7.21704 22.8158 7.18082 22.7217 7.18082 22.6071V21.4286H6.02162C5.90892 21.4286 5.81635 21.3917 5.7439 21.3181C5.67145 21.2444 5.63522 21.1503 5.63522 21.0357V20.25C5.63522 20.1354 5.67145 20.0413 5.7439 19.9676C5.81635 19.894 5.90892 19.8571 6.02162 19.8571H7.18082V18.2366C5.98137 18.1057 4.89261 17.6842 3.91454 16.9721C2.93647 16.26 2.1858 15.3454 1.66256 14.2282C1.13931 13.111 0.925982 11.9182 1.02258 10.6496C1.15138 8.97991 1.79538 7.5333 2.95458 6.30971C4.11378 5.08612 5.51045 4.38021 7.1446 4.19196C8.09449 4.07738 9.01219 4.15513 9.89769 4.42522C10.7832 4.69531 11.5801 5.11682 12.2885 5.68973L15.3677 2.57143H13.7496C13.6369 2.57143 13.5443 2.5346 13.4719 2.46094C13.3994 2.38728 13.3632 2.29315 13.3632 2.17857V1.39286ZM7.95362 16.7143C9.44287 16.7143 10.7168 16.1762 11.7753 15.0999C12.8339 14.0236 13.3632 12.7284 13.3632 11.2143C13.3632 9.70015 12.8339 8.40495 11.7753 7.32868C10.7168 6.25242 9.44287 5.71429 7.95362 5.71429C6.46437 5.71429 5.19046 6.25242 4.13189 7.32868C3.07332 8.40495 2.54403 9.70015 2.54403 11.2143C2.54403 12.7284 3.07332 14.0236 4.13189 15.0999C5.19046 16.1762 6.46437 16.7143 7.95362 16.7143Z" fill="black"/>
</svg>
