<svg width="24" height="24" viewBox="0 0 24 24" fill="none" xmlns="http://www.w3.org/2000/svg">
<path d="M11.9995 2.35059C14.5589 2.35059 17.014 3.36703 18.8237 5.17676C20.6333 6.98638 21.6498 9.44085 21.6499 12C21.6499 14.5593 20.6335 17.0145 18.8237 18.8242C17.014 20.6339 14.5589 21.6504 11.9995 21.6504C9.44036 21.6503 6.98589 20.6338 5.17627 18.8242C3.36654 17.0145 2.3501 14.5593 2.3501 12C2.3502 9.4408 3.36664 6.98639 5.17627 5.17676C6.9859 3.36712 9.44031 2.35069 11.9995 2.35059ZM11.7729 3.6543C11.9061 3.91035 12.0555 4.22402 12.188 4.57617C12.525 5.47416 12.828 6.77638 12.2886 7.9248C11.7938 8.97797 10.9427 9.2515 10.2974 9.41797L10.1812 9.44824C9.64493 9.58601 9.36591 9.65962 9.17236 9.87695L9.09424 9.97949C8.92846 10.2301 8.93855 10.5355 9.07764 11.043L9.14502 11.2725L9.19092 11.4219H9.18994C9.27011 11.6744 9.36393 11.9722 9.4126 12.2529C9.46588 12.5577 9.48284 12.9275 9.34229 13.293L9.27197 13.4492C9.05168 13.869 8.76377 14.1538 8.42334 14.3389L8.42236 14.3398C8.13647 14.4845 7.82846 14.5799 7.51123 14.625L7.51221 14.626L7.40674 14.6445V14.6436C6.91576 14.7304 6.64728 14.7784 6.39404 15.0498C6.19301 15.2656 6.07281 15.6336 6.00342 16.1514V16.1523C5.98916 16.2582 5.97825 16.3638 5.96826 16.4697L5.94092 16.79L5.93213 16.9033C5.91521 17.1488 5.88309 17.3931 5.83643 17.6348C6.61511 18.4885 7.56273 19.1712 8.61963 19.6387C9.68418 20.1095 10.8355 20.3523 11.9995 20.3506C13.5878 20.3506 15.0734 19.9045 16.3384 19.1348C16.2955 19.0904 16.2526 19.046 16.2114 19L16.0493 18.8096C15.7215 18.3983 15.3047 17.7004 15.4487 16.8857V16.8848C15.5181 16.4975 15.7279 16.1683 15.9351 15.9102C16.1474 15.648 16.4033 15.4044 16.6313 15.1943L16.7856 15.0537C16.961 14.894 17.1122 14.7544 17.2417 14.6201L17.3501 14.499C17.4346 14.3978 17.4627 14.3418 17.4692 14.3242C17.5449 14.0723 17.4541 13.8805 17.3354 13.7881C17.2867 13.7503 17.2086 13.7124 17.0991 13.7109C16.9893 13.7094 16.8433 13.7435 16.6606 13.8594L16.6616 13.8604C16.5344 13.9422 16.404 14.0197 16.271 14.0918L16.27 14.0908C16.14 14.1637 15.9995 14.2157 15.853 14.2432C15.727 14.2664 15.5969 14.2574 15.4751 14.2178C15.3532 14.1781 15.243 14.1086 15.1548 14.0156L15.1538 14.0146C15.0348 13.881 14.9556 13.7158 14.9272 13.5391C14.91 13.428 14.8981 13.3162 14.8911 13.2041L14.8853 13.125C14.878 13.0354 14.8725 12.9456 14.8618 12.8408L14.8608 12.8398C14.8317 12.5085 14.775 12.1802 14.6909 11.8584C14.5416 11.2811 14.1738 10.8124 13.7837 10.3164L13.6128 10.0996V10.0986C13.4217 9.85257 13.1712 9.51892 13.0806 9.15723C13.0191 8.93083 13.0298 8.69083 13.1108 8.4707L13.1489 8.38281C13.2436 8.18604 13.3894 8.03113 13.5503 7.91016L13.7563 7.74707C14.2682 7.32262 14.9902 6.60488 15.6362 5.93359C15.9822 5.57507 16.2945 5.23832 16.5298 4.98438C15.1806 4.11168 13.6072 3.64753 11.9995 3.65039L11.7729 3.6543ZM17.519 5.83203L17.5181 5.83105C17.2767 6.09285 16.9424 6.45188 16.5728 6.83594L16.5718 6.83496C15.8637 7.57123 14.9819 8.44977 14.3755 8.91602C14.4162 8.99294 14.4944 9.11558 14.6411 9.30469L14.7886 9.49316C15.1671 9.96868 15.7247 10.6673 15.9497 11.5322C16.066 11.9782 16.1187 12.3557 16.1499 12.6582C16.8506 12.2928 17.5885 12.3417 18.1294 12.7607H18.1304C18.6985 13.1989 18.936 13.9614 18.7134 14.7012C18.6378 14.9512 18.4858 15.1715 18.3325 15.3516L18.1812 15.5186C18.0946 15.6069 18.006 15.694 17.9165 15.7793L17.6431 16.0312L17.5112 16.1514C17.3107 16.3305 17.1213 16.522 16.9468 16.7266L16.9478 16.7275C16.7977 16.9131 16.7425 17.0386 16.729 17.1152C16.6849 17.366 16.8081 17.6754 17.0669 18.002C17.1837 18.1499 17.3089 18.2733 17.4058 18.3633C18.3233 17.5846 19.0627 16.6177 19.5708 15.5264C20.0847 14.4225 20.3509 13.2196 20.3501 12.002C20.3518 10.8191 20.1015 9.64885 19.6157 8.57031C19.1364 7.50624 18.4383 6.5552 17.5679 5.77832L17.519 5.83203ZM10.3726 3.80957C9.07777 4.06711 7.8621 4.62707 6.82568 5.44531C5.77989 6.27106 4.94683 7.33551 4.396 8.54883C3.84517 9.76222 3.59189 11.09 3.65869 12.4209C3.72292 13.6998 4.08265 14.9448 4.70459 16.0625L4.71533 15.9805L4.74756 15.7627C4.83468 15.2402 5.01075 14.6274 5.44385 14.1631C6.01069 13.5559 6.70304 13.4426 7.15674 13.3682L7.28564 13.3457C7.52874 13.3026 7.68157 13.2626 7.80225 13.1973C7.93984 13.1159 8.04945 12.9947 8.1167 12.8496L8.11865 12.8457C8.14631 12.7957 8.16971 12.6981 8.13232 12.4766C8.08939 12.2609 8.03183 12.0484 7.95947 11.8408L7.9585 11.8389L7.90186 11.6553C7.71885 11.0608 7.44541 10.1207 8.00928 9.26367C8.50126 8.51709 9.28808 8.32726 9.81104 8.19922L9.97314 8.16016L10.1724 8.10547C10.3623 8.04971 10.5238 7.98827 10.6626 7.90137C10.8458 7.78664 10.992 7.62586 11.1118 7.37109C11.416 6.7231 11.2809 5.85686 10.9712 5.03418C10.8439 4.69504 10.6914 4.36577 10.5142 4.0498C10.469 3.9687 10.4208 3.88885 10.3726 3.80957Z" fill="black" stroke="black" stroke-width="0.1"/>
</svg>
