<svg width="24" height="24" viewBox="0 0 24 24" fill="none" xmlns="http://www.w3.org/2000/svg">
<path d="M21.5999 12.0004C21.5999 9.45431 20.5885 7.01252 18.7881 5.21217C16.9878 3.41182 14.546 2.40039 11.9999 2.40039C9.45382 2.40039 7.01203 3.41182 5.21168 5.21217C3.41133 7.01252 2.3999 9.45431 2.3999 12.0004C2.3999 14.5465 3.41133 16.9883 5.21168 18.7886C7.01203 20.589 9.45382 21.6004 11.9999 21.6004C14.546 21.6004 16.9878 20.589 18.7881 18.7886C20.5885 16.9883 21.5999 14.5465 21.5999 12.0004ZM3.5999 12.0004C3.5999 10.8973 3.81717 9.80499 4.23931 8.78585C4.66145 7.76672 5.28019 6.84071 6.06021 6.06069C6.84022 5.28068 7.76623 4.66194 8.78536 4.2398C9.8045 3.81766 10.8968 3.60039 11.9999 3.60039C13.103 3.60039 14.1953 3.81766 15.2144 4.2398C16.2336 4.66194 17.1596 5.28068 17.9396 6.06069C18.7196 6.84071 19.3384 7.76672 19.7605 8.78585C20.1826 9.80499 20.3999 10.8973 20.3999 12.0004C20.3999 14.2282 19.5149 16.3648 17.9396 17.9401C16.3643 19.5154 14.2277 20.4004 11.9999 20.4004C9.77208 20.4004 7.63551 19.5154 6.06021 17.9401C4.4849 16.3648 3.5999 14.2282 3.5999 12.0004ZM16.1999 10.2004C16.1999 9.88213 16.0735 9.57691 15.8484 9.35186C15.6234 9.12682 15.3182 9.00039 14.9999 9.00039C14.6816 9.00039 14.3764 9.12682 14.1514 9.35186C13.9263 9.57691 13.7999 9.88213 13.7999 10.2004C13.7999 10.5187 13.9263 10.8239 14.1514 11.0489C14.3764 11.274 14.6816 11.4004 14.9999 11.4004C15.3182 11.4004 15.6234 11.274 15.8484 11.0489C16.0735 10.8239 16.1999 10.5187 16.1999 10.2004ZM10.1999 10.2004C10.1999 9.88213 10.0735 9.57691 9.84843 9.35186C9.62339 9.12682 9.31816 9.00039 8.9999 9.00039C8.68164 9.00039 8.37642 9.12682 8.15137 9.35186C7.92633 9.57691 7.7999 9.88213 7.7999 10.2004C7.7999 10.5187 7.92633 10.8239 8.15137 11.0489C8.37642 11.274 8.68164 11.4004 8.9999 11.4004C9.31816 11.4004 9.62339 11.274 9.84843 11.0489C10.0735 10.8239 10.1999 10.5187 10.1999 10.2004ZM8.2667 15.0184C8.21714 14.9571 8.15599 14.9062 8.08674 14.8685C8.0175 14.8308 7.94151 14.8072 7.86312 14.7989C7.78473 14.7906 7.70547 14.7978 7.62987 14.8201C7.55427 14.8424 7.4838 14.8794 7.4225 14.929C7.3612 14.9786 7.31026 15.0397 7.27259 15.1089C7.23493 15.1782 7.21126 15.2542 7.20296 15.3326C7.19466 15.411 7.20188 15.4902 7.22421 15.5658C7.24654 15.6414 7.28354 15.7119 7.3331 15.7732C7.8957 16.4689 8.60678 17.03 9.41426 17.4153C10.2217 17.8007 11.1052 18.0006 11.9999 18.0004C13.8839 18.0004 15.5675 17.1304 16.6667 15.7732C16.7163 15.7119 16.7534 15.6414 16.7758 15.5658C16.7982 15.4901 16.8055 15.4108 16.7973 15.3324C16.789 15.254 16.7654 15.1779 16.7278 15.1086C16.6901 15.0393 16.6392 14.978 16.5779 14.9284C16.5166 14.8788 16.4461 14.8417 16.3705 14.8193C16.2949 14.7969 16.2156 14.7896 16.1371 14.7978C16.0587 14.8061 15.9826 14.8297 15.9133 14.8673C15.844 14.905 15.7827 14.9559 15.7331 15.0172C15.2832 15.574 14.7144 16.0231 14.0685 16.3316C13.4225 16.6402 12.7158 16.8003 11.9999 16.8004C11.2841 16.8005 10.5774 16.6405 9.93148 16.3322C9.28554 16.0239 8.71673 15.575 8.2667 15.0184Z" fill="black"/>
</svg>
