<svg width="24" height="24" viewBox="0 0 24 24" fill="none" xmlns="http://www.w3.org/2000/svg">
<path fill-rule="evenodd" clip-rule="evenodd" d="M5.00003 10C5.00003 8.64706 5.34315 7.31622 5.99731 6.13194C6.65147 4.94766 7.59528 3.94862 8.7405 3.22826C9.88572 2.5079 11.1949 2.08975 12.5457 2.01291C13.8964 1.93608 15.2446 2.20306 16.4641 2.7889C17.6837 3.37474 18.7347 4.2603 19.5189 5.36275C20.3032 6.46521 20.795 7.74855 20.9484 9.09276C21.1019 10.437 20.9119 11.7981 20.3962 13.049C19.8806 14.2998 19.0562 15.3994 18 16.245V20.5C18 20.8978 17.842 21.2794 17.5607 21.5607C17.2794 21.842 16.8979 22 16.5 22H11.5C11.1022 22 10.7207 21.842 10.4394 21.5607C10.1581 21.2794 10 20.8978 10 20.5V19H8.76603C8.03478 19 7.32869 18.733 6.78049 18.2491C6.23228 17.7651 5.87971 17.0976 5.78903 16.372L5.64903 15.249L4.90203 15.1C4.68443 15.0564 4.4792 14.9651 4.30115 14.8326C4.1231 14.7002 3.97666 14.5298 3.8724 14.3339C3.76813 14.138 3.70863 13.9214 3.69819 13.6997C3.68775 13.4781 3.72664 13.2568 3.81203 13.052L5.00203 10.194L5.00003 10ZM13 4C12.1931 3.99996 11.3944 4.16272 10.6517 4.47852C9.90912 4.79432 9.23784 5.25668 8.67806 5.83794C8.11828 6.41919 7.6815 7.10739 7.39386 7.86137C7.10622 8.61534 6.97363 9.41959 7.00403 10.226C7.01203 10.436 6.97703 10.656 6.88903 10.866L5.89203 13.259L6.39403 13.359C6.70272 13.4208 6.98415 13.5782 7.19844 13.8088C7.41273 14.0394 7.54903 14.3316 7.58803 14.644L7.77303 16.124C7.80327 16.366 7.92089 16.5886 8.10377 16.7499C8.28664 16.9112 8.52217 17.0002 8.76603 17H10.5C10.8979 17 11.2794 17.158 11.5607 17.4393C11.842 17.7206 12 18.1022 12 18.5V20H16V16.006C16 15.509 16.244 15.069 16.609 14.794C17.6146 14.0372 18.3567 12.9834 18.7304 11.7816C19.1041 10.5798 19.0905 9.29099 18.6914 8.09741C18.2923 6.90383 17.528 5.86596 16.5067 5.13064C15.4853 4.39532 14.2586 3.99979 13 4Z" fill="black"/>
</svg>
