<svg width="24" height="24" viewBox="0 0 24 24" fill="none" xmlns="http://www.w3.org/2000/svg">
<mask id="path-1-outside-1_446_3287" maskUnits="userSpaceOnUse" x="2" y="1" width="20" height="22" fill="black">
<rect fill="white" x="2" y="1" width="20" height="22"/>
<path fill-rule="evenodd" clip-rule="evenodd" d="M10 2C10.1326 2 10.2598 2.05268 10.3536 2.14645C10.4473 2.24021 10.5 2.36739 10.5 2.5V6.6715C10.5 6.99986 10.4353 7.32501 10.3096 7.62836C10.1839 7.93172 9.99972 8.20735 9.7675 8.4395L9.516 8.6915C9.32387 8.88347 9.20635 9.13756 9.18447 9.40828C9.16258 9.67899 9.23778 9.94866 9.39658 10.169C9.55538 10.3893 9.78742 10.546 10.0512 10.6108C10.3149 10.6757 10.5931 10.6445 10.836 10.523L10.957 10.4625C11.2807 10.3005 11.6377 10.2161 11.9998 10.2161C12.3618 10.2161 12.7188 10.3005 13.0425 10.4625L13.164 10.5225C13.4068 10.6437 13.6848 10.6746 13.9483 10.6097C14.2118 10.5448 14.4436 10.3883 14.6023 10.1681C14.761 9.94798 14.8363 9.67857 14.8146 9.40806C14.7929 9.13754 14.6757 8.88355 14.484 8.6915L14.2325 8.4395C14.0003 8.20735 13.8161 7.93172 13.6904 7.62836C13.5647 7.32501 13.5 6.99986 13.5 6.6715V2.5C13.5 2.36739 13.5527 2.24021 13.6464 2.14645C13.7402 2.05268 13.8674 2 14 2C14.1326 2 14.2598 2.05268 14.3536 2.14645C14.4473 2.24021 14.5 2.36739 14.5 2.5V3.352C18.2545 4.435 21 7.897 21 12C21 16.103 18.2545 19.565 14.5 20.6485V21.5C14.5 21.6326 14.4473 21.7598 14.3536 21.8536C14.2598 21.9473 14.1326 22 14 22C13.8674 22 13.7402 21.9473 13.6464 21.8536C13.5527 21.7598 13.5 21.6326 13.5 21.5V17.3285C13.5 17.0001 13.5647 16.675 13.6904 16.3716C13.8161 16.0683 14.0003 15.7927 14.2325 15.5605L14.484 15.3085C14.6761 15.1165 14.7937 14.8624 14.8155 14.5917C14.8374 14.321 14.7622 14.0513 14.6034 13.831C14.4446 13.6107 14.2126 13.454 13.9488 13.3892C13.6851 13.3243 13.4069 13.3555 13.164 13.477L13.043 13.5375C12.7193 13.6995 12.3623 13.7839 12.0002 13.7839C11.6382 13.7839 11.2812 13.6995 10.9575 13.5375L10.836 13.4775C10.5932 13.3563 10.3152 13.3254 10.0517 13.3903C9.78819 13.4552 9.55637 13.6117 9.39766 13.8319C9.23896 14.052 9.16372 14.3214 9.1854 14.5919C9.20708 14.8625 9.32426 15.1164 9.516 15.3085L9.7675 15.5605C9.99972 15.7927 10.1839 16.0683 10.3096 16.3716C10.4353 16.675 10.5 17.0001 10.5 17.3285V21.5C10.5 21.6326 10.4473 21.7598 10.3536 21.8536C10.2598 21.9473 10.1326 22 10 22C9.86739 22 9.74021 21.9473 9.64645 21.8536C9.55268 21.7598 9.5 21.6326 9.5 21.5V20.6485C5.7455 19.565 3 16.1035 3 12C3 7.897 5.7455 4.435 9.5 3.352V2.5C9.5 2.36739 9.55268 2.24021 9.64645 2.14645C9.74021 2.05268 9.86739 2 10 2ZM9.5 4.3985C6.306 5.4485 4 8.455 4 12C4 15.545 6.306 18.552 9.5 19.6015V17.3285C9.49992 16.9307 9.34182 16.5492 9.0605 16.268L8.8085 16.016C8.4486 15.656 8.22854 15.1797 8.18769 14.6723C8.14684 14.1648 8.28787 13.6594 8.58554 13.2465C8.88321 12.8335 9.3181 12.54 9.81241 12.4183C10.3067 12.2967 10.8282 12.3549 11.2835 12.5825L11.4045 12.643C11.7795 12.8305 12.2205 12.8305 12.5955 12.643L12.7165 12.583C13.1717 12.3557 13.693 12.2977 14.1871 12.4194C14.6811 12.5412 15.1158 12.8346 15.4134 13.2474C15.7109 13.6601 15.852 14.1653 15.8114 14.6725C15.7707 15.1797 15.551 15.6559 15.1915 16.016L14.9395 16.268C14.6583 16.5491 14.5002 16.9304 14.5 17.328V19.6015C17.694 18.5515 20 15.545 20 12C20 8.455 17.694 5.448 14.5 4.3985V6.6715C14.5001 7.06929 14.6582 7.45076 14.9395 7.732L15.1915 7.984C15.5514 8.34401 15.7715 8.82034 15.8123 9.32775C15.8532 9.83516 15.7121 10.3406 15.4145 10.7535C15.1168 11.1665 14.6819 11.46 14.1876 11.5817C13.6933 11.7033 13.1718 11.6451 12.7165 11.4175L12.5955 11.357C12.4106 11.2644 12.2067 11.2162 12 11.2162C11.7933 11.2162 11.5894 11.2644 11.4045 11.357L11.2835 11.417C10.8283 11.6443 10.307 11.7023 9.81294 11.5806C9.31887 11.4588 8.8842 11.1654 8.58662 10.7526C8.28905 10.3399 8.14798 9.83474 8.18863 9.32753C8.22927 8.82032 8.44899 8.3441 8.8085 7.984L9.0605 7.732C9.3417 7.45088 9.49978 7.06962 9.5 6.672V4.3985Z"/>
</mask>
<path fill-rule="evenodd" clip-rule="evenodd" d="M10 2C10.1326 2 10.2598 2.05268 10.3536 2.14645C10.4473 2.24021 10.5 2.36739 10.5 2.5V6.6715C10.5 6.99986 10.4353 7.32501 10.3096 7.62836C10.1839 7.93172 9.99972 8.20735 9.7675 8.4395L9.516 8.6915C9.32387 8.88347 9.20635 9.13756 9.18447 9.40828C9.16258 9.67899 9.23778 9.94866 9.39658 10.169C9.55538 10.3893 9.78742 10.546 10.0512 10.6108C10.3149 10.6757 10.5931 10.6445 10.836 10.523L10.957 10.4625C11.2807 10.3005 11.6377 10.2161 11.9998 10.2161C12.3618 10.2161 12.7188 10.3005 13.0425 10.4625L13.164 10.5225C13.4068 10.6437 13.6848 10.6746 13.9483 10.6097C14.2118 10.5448 14.4436 10.3883 14.6023 10.1681C14.761 9.94798 14.8363 9.67857 14.8146 9.40806C14.7929 9.13754 14.6757 8.88355 14.484 8.6915L14.2325 8.4395C14.0003 8.20735 13.8161 7.93172 13.6904 7.62836C13.5647 7.32501 13.5 6.99986 13.5 6.6715V2.5C13.5 2.36739 13.5527 2.24021 13.6464 2.14645C13.7402 2.05268 13.8674 2 14 2C14.1326 2 14.2598 2.05268 14.3536 2.14645C14.4473 2.24021 14.5 2.36739 14.5 2.5V3.352C18.2545 4.435 21 7.897 21 12C21 16.103 18.2545 19.565 14.5 20.6485V21.5C14.5 21.6326 14.4473 21.7598 14.3536 21.8536C14.2598 21.9473 14.1326 22 14 22C13.8674 22 13.7402 21.9473 13.6464 21.8536C13.5527 21.7598 13.5 21.6326 13.5 21.5V17.3285C13.5 17.0001 13.5647 16.675 13.6904 16.3716C13.8161 16.0683 14.0003 15.7927 14.2325 15.5605L14.484 15.3085C14.6761 15.1165 14.7937 14.8624 14.8155 14.5917C14.8374 14.321 14.7622 14.0513 14.6034 13.831C14.4446 13.6107 14.2126 13.454 13.9488 13.3892C13.6851 13.3243 13.4069 13.3555 13.164 13.477L13.043 13.5375C12.7193 13.6995 12.3623 13.7839 12.0002 13.7839C11.6382 13.7839 11.2812 13.6995 10.9575 13.5375L10.836 13.4775C10.5932 13.3563 10.3152 13.3254 10.0517 13.3903C9.78819 13.4552 9.55637 13.6117 9.39766 13.8319C9.23896 14.052 9.16372 14.3214 9.1854 14.5919C9.20708 14.8625 9.32426 15.1164 9.516 15.3085L9.7675 15.5605C9.99972 15.7927 10.1839 16.0683 10.3096 16.3716C10.4353 16.675 10.5 17.0001 10.5 17.3285V21.5C10.5 21.6326 10.4473 21.7598 10.3536 21.8536C10.2598 21.9473 10.1326 22 10 22C9.86739 22 9.74021 21.9473 9.64645 21.8536C9.55268 21.7598 9.5 21.6326 9.5 21.5V20.6485C5.7455 19.565 3 16.1035 3 12C3 7.897 5.7455 4.435 9.5 3.352V2.5C9.5 2.36739 9.55268 2.24021 9.64645 2.14645C9.74021 2.05268 9.86739 2 10 2ZM9.5 4.3985C6.306 5.4485 4 8.455 4 12C4 15.545 6.306 18.552 9.5 19.6015V17.3285C9.49992 16.9307 9.34182 16.5492 9.0605 16.268L8.8085 16.016C8.4486 15.656 8.22854 15.1797 8.18769 14.6723C8.14684 14.1648 8.28787 13.6594 8.58554 13.2465C8.88321 12.8335 9.3181 12.54 9.81241 12.4183C10.3067 12.2967 10.8282 12.3549 11.2835 12.5825L11.4045 12.643C11.7795 12.8305 12.2205 12.8305 12.5955 12.643L12.7165 12.583C13.1717 12.3557 13.693 12.2977 14.1871 12.4194C14.6811 12.5412 15.1158 12.8346 15.4134 13.2474C15.7109 13.6601 15.852 14.1653 15.8114 14.6725C15.7707 15.1797 15.551 15.6559 15.1915 16.016L14.9395 16.268C14.6583 16.5491 14.5002 16.9304 14.5 17.328V19.6015C17.694 18.5515 20 15.545 20 12C20 8.455 17.694 5.448 14.5 4.3985V6.6715C14.5001 7.06929 14.6582 7.45076 14.9395 7.732L15.1915 7.984C15.5514 8.34401 15.7715 8.82034 15.8123 9.32775C15.8532 9.83516 15.7121 10.3406 15.4145 10.7535C15.1168 11.1665 14.6819 11.46 14.1876 11.5817C13.6933 11.7033 13.1718 11.6451 12.7165 11.4175L12.5955 11.357C12.4106 11.2644 12.2067 11.2162 12 11.2162C11.7933 11.2162 11.5894 11.2644 11.4045 11.357L11.2835 11.417C10.8283 11.6443 10.307 11.7023 9.81294 11.5806C9.31887 11.4588 8.8842 11.1654 8.58662 10.7526C8.28905 10.3399 8.14798 9.83474 8.18863 9.32753C8.22927 8.82032 8.44899 8.3441 8.8085 7.984L9.0605 7.732C9.3417 7.45088 9.49978 7.06962 9.5 6.672V4.3985Z" fill="black"/>
<path fill-rule="evenodd" clip-rule="evenodd" d="M10 2C10.1326 2 10.2598 2.05268 10.3536 2.14645C10.4473 2.24021 10.5 2.36739 10.5 2.5V6.6715C10.5 6.99986 10.4353 7.32501 10.3096 7.62836C10.1839 7.93172 9.99972 8.20735 9.7675 8.4395L9.516 8.6915C9.32387 8.88347 9.20635 9.13756 9.18447 9.40828C9.16258 9.67899 9.23778 9.94866 9.39658 10.169C9.55538 10.3893 9.78742 10.546 10.0512 10.6108C10.3149 10.6757 10.5931 10.6445 10.836 10.523L10.957 10.4625C11.2807 10.3005 11.6377 10.2161 11.9998 10.2161C12.3618 10.2161 12.7188 10.3005 13.0425 10.4625L13.164 10.5225C13.4068 10.6437 13.6848 10.6746 13.9483 10.6097C14.2118 10.5448 14.4436 10.3883 14.6023 10.1681C14.761 9.94798 14.8363 9.67857 14.8146 9.40806C14.7929 9.13754 14.6757 8.88355 14.484 8.6915L14.2325 8.4395C14.0003 8.20735 13.8161 7.93172 13.6904 7.62836C13.5647 7.32501 13.5 6.99986 13.5 6.6715V2.5C13.5 2.36739 13.5527 2.24021 13.6464 2.14645C13.7402 2.05268 13.8674 2 14 2C14.1326 2 14.2598 2.05268 14.3536 2.14645C14.4473 2.24021 14.5 2.36739 14.5 2.5V3.352C18.2545 4.435 21 7.897 21 12C21 16.103 18.2545 19.565 14.5 20.6485V21.5C14.5 21.6326 14.4473 21.7598 14.3536 21.8536C14.2598 21.9473 14.1326 22 14 22C13.8674 22 13.7402 21.9473 13.6464 21.8536C13.5527 21.7598 13.5 21.6326 13.5 21.5V17.3285C13.5 17.0001 13.5647 16.675 13.6904 16.3716C13.8161 16.0683 14.0003 15.7927 14.2325 15.5605L14.484 15.3085C14.6761 15.1165 14.7937 14.8624 14.8155 14.5917C14.8374 14.321 14.7622 14.0513 14.6034 13.831C14.4446 13.6107 14.2126 13.454 13.9488 13.3892C13.6851 13.3243 13.4069 13.3555 13.164 13.477L13.043 13.5375C12.7193 13.6995 12.3623 13.7839 12.0002 13.7839C11.6382 13.7839 11.2812 13.6995 10.9575 13.5375L10.836 13.4775C10.5932 13.3563 10.3152 13.3254 10.0517 13.3903C9.78819 13.4552 9.55637 13.6117 9.39766 13.8319C9.23896 14.052 9.16372 14.3214 9.1854 14.5919C9.20708 14.8625 9.32426 15.1164 9.516 15.3085L9.7675 15.5605C9.99972 15.7927 10.1839 16.0683 10.3096 16.3716C10.4353 16.675 10.5 17.0001 10.5 17.3285V21.5C10.5 21.6326 10.4473 21.7598 10.3536 21.8536C10.2598 21.9473 10.1326 22 10 22C9.86739 22 9.74021 21.9473 9.64645 21.8536C9.55268 21.7598 9.5 21.6326 9.5 21.5V20.6485C5.7455 19.565 3 16.1035 3 12C3 7.897 5.7455 4.435 9.5 3.352V2.5C9.5 2.36739 9.55268 2.24021 9.64645 2.14645C9.74021 2.05268 9.86739 2 10 2ZM9.5 4.3985C6.306 5.4485 4 8.455 4 12C4 15.545 6.306 18.552 9.5 19.6015V17.3285C9.49992 16.9307 9.34182 16.5492 9.0605 16.268L8.8085 16.016C8.4486 15.656 8.22854 15.1797 8.18769 14.6723C8.14684 14.1648 8.28787 13.6594 8.58554 13.2465C8.88321 12.8335 9.3181 12.54 9.81241 12.4183C10.3067 12.2967 10.8282 12.3549 11.2835 12.5825L11.4045 12.643C11.7795 12.8305 12.2205 12.8305 12.5955 12.643L12.7165 12.583C13.1717 12.3557 13.693 12.2977 14.1871 12.4194C14.6811 12.5412 15.1158 12.8346 15.4134 13.2474C15.7109 13.6601 15.852 14.1653 15.8114 14.6725C15.7707 15.1797 15.551 15.6559 15.1915 16.016L14.9395 16.268C14.6583 16.5491 14.5002 16.9304 14.5 17.328V19.6015C17.694 18.5515 20 15.545 20 12C20 8.455 17.694 5.448 14.5 4.3985V6.6715C14.5001 7.06929 14.6582 7.45076 14.9395 7.732L15.1915 7.984C15.5514 8.34401 15.7715 8.82034 15.8123 9.32775C15.8532 9.83516 15.7121 10.3406 15.4145 10.7535C15.1168 11.1665 14.6819 11.46 14.1876 11.5817C13.6933 11.7033 13.1718 11.6451 12.7165 11.4175L12.5955 11.357C12.4106 11.2644 12.2067 11.2162 12 11.2162C11.7933 11.2162 11.5894 11.2644 11.4045 11.357L11.2835 11.417C10.8283 11.6443 10.307 11.7023 9.81294 11.5806C9.31887 11.4588 8.8842 11.1654 8.58662 10.7526C8.28905 10.3399 8.14798 9.83474 8.18863 9.32753C8.22927 8.82032 8.44899 8.3441 8.8085 7.984L9.0605 7.732C9.3417 7.45088 9.49978 7.06962 9.5 6.672V4.3985Z" stroke="black" stroke-width="0.6" mask="url(#path-1-outside-1_446_3287)"/>
</svg>
