<svg width="24" height="24" viewBox="0 0 24 24" fill="none" xmlns="http://www.w3.org/2000/svg">
<path d="M8.99808 12C9.79373 12 10.5568 11.6839 11.1194 11.1213C11.682 10.5587 11.9981 9.79565 11.9981 9M11.9981 9C11.9981 9.79565 12.3142 10.5587 12.8768 11.1213C13.4394 11.6839 14.2024 12 14.9981 12M11.9981 9V4M6.07908 20C7.69108 20 8.99808 18.665 8.99808 17.02V7.257C8.99808 6.563 8.44608 6 7.76608 6C7.56108 6 7.36108 6.052 7.18208 6.15L7.05208 6.233C5.59208 7.292 4.62008 8.88 3.64808 12.057C3.22808 13.427 3.01208 15.0187 3.00008 16.832C2.98808 18.507 4.26108 19.886 5.87708 19.993L6.07908 20ZM17.9181 20C16.3051 20 14.9981 18.665 14.9981 17.02V7.257C14.9981 6.563 15.5501 6 16.2311 6C16.4351 6 16.6361 6.052 16.8151 6.15L16.9451 6.233C18.4051 7.292 19.3771 8.88 20.3501 12.057C20.7701 13.427 20.9861 15.0187 20.9981 16.832C21.0101 18.507 19.7371 19.886 18.1201 19.993L17.9181 20Z" stroke="black" stroke-width="2" stroke-linecap="round" stroke-linejoin="round"/>
</svg>
