<svg width="24" height="24" viewBox="0 0 24 24" fill="none" xmlns="http://www.w3.org/2000/svg">
<path fill-rule="evenodd" clip-rule="evenodd" d="M12.7189 4.0623C12.7459 4.12221 12.7608 4.18685 12.7628 4.25253C12.7648 4.31821 12.7538 4.38364 12.7305 4.44507C12.7072 4.50651 12.672 4.56275 12.6269 4.61057C12.5819 4.6584 12.5278 4.69687 12.4679 4.7238C12.0299 4.9209 11.658 5.24 11.3966 5.64291C11.1352 6.04583 10.9954 6.51552 10.9939 6.9958V7.0133C10.9971 7.65156 11.2444 8.26441 11.6849 8.72625C12.1255 9.18808 12.726 9.46392 13.3634 9.49723C14.0008 9.53054 14.6268 9.3188 15.1131 8.90539C15.5994 8.49199 15.9092 7.90824 15.9789 7.2738C15.993 7.14185 16.059 7.02092 16.1623 6.93761C16.2655 6.8543 16.3977 6.81543 16.5296 6.82955C16.6616 6.84367 16.7825 6.90963 16.8658 7.01292C16.9491 7.1162 16.988 7.24835 16.9739 7.3803C16.8971 8.09971 16.5983 8.77739 16.1189 9.3193C16.8565 9.48591 17.5203 9.88692 18.0109 10.4623C18.0536 10.5122 18.086 10.5701 18.1063 10.6326C18.1266 10.695 18.1345 10.7609 18.1293 10.8264C18.1242 10.8919 18.1062 10.9557 18.0764 11.0142C18.0466 11.0728 18.0056 11.1249 17.9556 11.1675C17.9057 11.2102 17.8479 11.2427 17.7854 11.263C17.7229 11.2833 17.6571 11.2911 17.5916 11.286C17.5261 11.2809 17.4622 11.2629 17.4037 11.2331C17.3452 11.2033 17.2931 11.1622 17.2504 11.1123C16.8365 10.6254 16.252 10.3155 15.6167 10.2462C14.9815 10.1769 14.3439 10.3535 13.8348 10.7397C13.3257 11.1258 12.9838 11.6923 12.8793 12.3227C12.7748 12.953 12.9156 13.5995 13.2729 14.1293L13.2764 14.1333C13.3311 14.2045 13.3657 14.2891 13.3764 14.3783C13.5429 14.3993 13.7019 14.4798 13.8204 14.6163C13.9344 14.7483 14.0381 14.8828 14.1314 15.0198C14.3129 15.2848 14.2889 15.6288 14.0959 15.8653C14.2456 15.862 14.3924 15.9065 14.5151 15.9923C14.6378 16.078 14.73 16.2006 14.7784 16.3423C14.8834 16.6488 14.9644 16.9483 15.0334 17.2203C15.066 17.3472 15.0626 17.4807 15.0235 17.6057C14.9845 17.7308 14.9114 17.8425 14.8124 17.9283C15.0489 17.9623 15.2624 18.1148 15.3629 18.3503C15.4554 18.5668 15.5439 18.6723 15.6259 18.7303C15.7579 18.8233 15.8479 18.9533 15.8924 19.0963C16.0039 18.9493 16.1729 18.8463 16.3709 18.8223C16.4776 18.8096 16.5974 18.789 16.7304 18.7603C16.9334 18.7158 17.1349 18.7638 17.2914 18.8758C17.3461 18.7978 17.4219 18.7371 17.5099 18.7008L17.6469 18.6433C17.7725 18.5839 17.8848 18.4996 17.977 18.3956C18.0692 18.2917 18.1394 18.1701 18.1834 18.0383C18.2829 17.7383 18.2744 17.3033 17.9874 16.7468C17.9558 16.6883 17.9362 16.6242 17.9298 16.558C17.9233 16.4919 17.9301 16.4251 17.9497 16.3617C17.9693 16.2982 18.0014 16.2393 18.044 16.1883C18.0867 16.1374 18.139 16.0954 18.1981 16.065C18.2571 16.0345 18.3217 16.0161 18.3879 16.0108C18.4541 16.0056 18.5208 16.0136 18.5839 16.0344C18.647 16.0552 18.7053 16.0884 18.7554 16.132C18.8056 16.1755 18.8465 16.2287 18.8759 16.2883C19.0799 16.6833 19.1964 17.0713 19.2309 17.4393C19.6032 16.99 19.903 16.4852 20.1194 15.9433C20.1442 15.8825 20.1807 15.8271 20.2269 15.7804C20.2731 15.7337 20.328 15.6965 20.3885 15.671C20.4491 15.6455 20.5141 15.6322 20.5797 15.6318C20.6454 15.6314 20.7106 15.644 20.7714 15.6688C20.8322 15.6936 20.8876 15.7301 20.9343 15.7763C20.981 15.8225 21.0182 15.8774 21.0437 15.9379C21.0692 15.9985 21.0825 16.0635 21.0829 16.1292C21.0832 16.1948 21.0707 16.26 21.0459 16.3208C20.7329 17.0883 20.3439 17.6758 19.9694 18.1143C20.2129 18.1428 20.4694 18.2028 20.7464 18.2993C20.8717 18.3427 20.9746 18.4342 21.0325 18.5535C21.0904 18.6728 21.0986 18.8102 21.0551 18.9355C21.0117 19.0609 20.9203 19.1638 20.801 19.2217C20.6816 19.2796 20.5442 19.2877 20.4189 19.2443C19.9214 19.0713 19.5679 19.0643 19.2234 19.1363C18.9024 19.2028 18.5869 19.3343 18.1464 19.5188L18.0529 19.5578C17.9953 19.5849 17.9364 19.6093 17.8764 19.6308C17.7749 19.6688 17.6639 19.6729 17.5599 19.6423C17.5251 19.7654 17.4576 19.8768 17.3644 19.9644C17.2712 20.052 17.1559 20.1127 17.0309 20.1398C16.8599 20.1771 16.6959 20.2053 16.5389 20.2243C16.3751 20.2441 16.2096 20.2059 16.0711 20.1163C15.9326 20.0267 15.8299 19.8913 15.7809 19.7338C15.6704 19.8799 15.5073 19.9773 15.3263 20.0053C15.1452 20.0333 14.9604 19.9897 14.8109 19.8838C14.4374 19.6198 14.2144 19.2563 14.0644 18.9053C14.0054 18.7679 13.9916 18.6152 14.025 18.4694C14.0584 18.3236 14.1374 18.1923 14.2504 18.0943C14.1119 18.0748 13.9823 18.0146 13.8782 17.9213C13.774 17.828 13.6999 17.7058 13.6654 17.5703C13.6015 17.3108 13.5273 17.0539 13.4429 16.8003C13.4039 16.6867 13.3945 16.5651 13.4157 16.4468C13.4368 16.3286 13.4879 16.2178 13.5639 16.1248C13.4466 16.1273 13.3305 16.1005 13.2261 16.0468C13.1218 15.9931 13.0325 15.9142 12.9664 15.8173C12.9007 15.7211 12.8294 15.6287 12.7529 15.5408C12.6736 15.4494 12.6191 15.3391 12.5947 15.2205C12.5704 15.1019 12.577 14.9791 12.6139 14.8638C12.5567 14.8279 12.5074 14.7808 12.4689 14.7253L12.4639 14.7168C12.2302 14.4174 11.9313 14.1753 11.5899 14.0089C11.2485 13.8426 10.8737 13.7563 10.4939 13.7568C9.69389 13.7568 8.98189 14.1318 8.52389 14.7168C8.48997 14.766 8.45479 14.8144 8.41839 14.8618C8.14124 15.2742 7.99327 15.7599 7.99339 16.2568C7.99339 16.7333 8.12639 17.1768 8.35689 17.5553C8.4232 17.6684 8.4424 17.8031 8.41035 17.9303C8.3783 18.0575 8.29756 18.167 8.18555 18.2352C8.07353 18.3034 7.9392 18.3248 7.8115 18.2949C7.68381 18.265 7.57298 18.1861 7.50289 18.0753C7.11564 17.4404 6.94166 16.6982 7.00639 15.9573C6.35078 16.2343 5.62651 16.3058 4.92939 16.1623C4.7995 16.1356 4.68555 16.0584 4.6126 15.9476C4.53964 15.8369 4.51367 15.7017 4.54039 15.5718C4.56711 15.4419 4.64434 15.328 4.75508 15.255C4.86582 15.1821 5.001 15.1561 5.13089 15.1828C5.29489 15.2168 5.46423 15.234 5.63889 15.2343C6.43889 15.2343 7.15089 14.8593 7.60889 14.2743C7.64289 14.2246 7.67806 14.1763 7.71439 14.1293C8.06713 13.605 8.20822 12.9665 8.10928 12.3424C8.01034 11.7183 7.67871 11.1547 7.1811 10.7652C6.6835 10.3757 6.05684 10.1891 5.4272 10.2429C4.79757 10.2967 4.21167 10.587 3.78739 11.0553C3.69821 11.1535 3.57368 11.2122 3.44118 11.2186C3.30869 11.225 3.17909 11.1785 3.08089 11.0893C2.9827 11.0001 2.92395 10.8756 2.91757 10.7431C2.91119 10.6106 2.95771 10.481 3.04689 10.3828C3.53046 9.84952 4.16669 9.47833 4.86889 9.3198C4.40545 8.79465 4.11022 8.14254 4.02139 7.4478C4.00667 7.3172 4.04397 7.18605 4.12521 7.08274C4.20645 6.97943 4.3251 6.91226 4.45549 6.89576C4.58588 6.87927 4.71752 6.91477 4.82193 6.9946C4.92634 7.07442 4.99512 7.19215 5.01339 7.3223C5.0953 7.95092 5.41292 8.52496 5.90199 8.92831C6.39106 9.33165 7.01507 9.53417 7.64779 9.49492C8.2805 9.45566 8.87469 9.17754 9.31015 8.71684C9.74561 8.25613 9.98982 7.64722 9.99339 7.0133V6.9958C9.9919 6.52341 9.8566 6.0611 9.60316 5.66245C9.34972 5.26379 8.98851 4.9451 8.56139 4.7433C8.50203 4.71519 8.44879 4.67568 8.40471 4.627C8.36062 4.57832 8.32656 4.52143 8.30446 4.45959C8.28236 4.39775 8.27266 4.33215 8.2759 4.26656C8.27915 4.20097 8.29529 4.13666 8.32339 4.0773C8.35149 4.01794 8.39101 3.9647 8.43969 3.92061C8.48837 3.87653 8.54526 3.84247 8.6071 3.82036C8.66894 3.79826 8.73454 3.78856 8.80013 3.79181C8.86572 3.79506 8.93003 3.8112 8.98939 3.8393C9.61383 4.13537 10.1371 4.60894 10.4939 5.2008C10.8621 4.58989 11.4074 4.10544 12.0574 3.8118C12.1173 3.78479 12.1819 3.76984 12.2475 3.76782C12.3132 3.76579 12.3786 3.77672 12.44 3.79998C12.5015 3.82325 12.5577 3.85839 12.6056 3.9034C12.6534 3.9484 12.6919 4.0024 12.7189 4.0623ZM10.4939 12.0058C10.594 12.0084 10.6936 11.9909 10.7868 11.9544C10.88 11.9179 10.965 11.8631 11.0367 11.7932C11.1084 11.7233 11.1654 11.6398 11.2043 11.5475C11.2432 11.4553 11.2633 11.3562 11.2633 11.256C11.2633 11.1559 11.2432 11.0568 11.2043 10.9646C11.1654 10.8723 11.1084 10.7888 11.0367 10.7189C10.965 10.649 10.88 10.5942 10.7868 10.5577C10.6936 10.5212 10.594 10.5037 10.4939 10.5063C10.295 10.5063 10.1042 10.5853 9.96356 10.726C9.82291 10.8666 9.74389 11.0574 9.74389 11.2563C9.74389 11.4552 9.82291 11.646 9.96356 11.7866C10.1042 11.9273 10.295 12.0058 10.4939 12.0058Z" fill="black"/>
</svg>
