<svg width="24" height="24" viewBox="0 0 24 24" fill="none" xmlns="http://www.w3.org/2000/svg">
<path d="M8.9999 11.4004C9.31816 11.4004 9.62339 11.274 9.84843 11.0489C10.0735 10.8239 10.1999 10.5187 10.1999 10.2004C10.1999 9.88213 10.0735 9.57691 9.84843 9.35186C9.62339 9.12682 9.31816 9.00039 8.9999 9.00039C8.68164 9.00039 8.37642 9.12682 8.15137 9.35186C7.92633 9.57691 7.7999 9.88213 7.7999 10.2004C7.7999 10.5187 7.92633 10.8239 8.15137 11.0489C8.37642 11.274 8.68164 11.4004 8.9999 11.4004ZM16.1999 10.2004C16.1999 10.5187 16.0735 10.8239 15.8484 11.0489C15.6234 11.274 15.3182 11.4004 14.9999 11.4004C14.6816 11.4004 14.3764 11.274 14.1514 11.0489C13.9263 10.8239 13.7999 10.5187 13.7999 10.2004C13.7999 9.88213 13.9263 9.57691 14.1514 9.35186C14.3764 9.12682 14.6816 9.00039 14.9999 9.00039C15.3182 9.00039 15.6234 9.12682 15.8484 9.35186C16.0735 9.57691 16.1999 9.88213 16.1999 10.2004ZM7.7999 14.4004C7.64077 14.4004 7.48816 14.4636 7.37564 14.5761C7.26312 14.6886 7.1999 14.8413 7.1999 15.0004C7.1999 15.1595 7.26312 15.3121 7.37564 15.4247C7.48816 15.5372 7.64077 15.6004 7.7999 15.6004H16.1999C16.359 15.6004 16.5116 15.5372 16.6242 15.4247C16.7367 15.3121 16.7999 15.1595 16.7999 15.0004C16.7999 14.8413 16.7367 14.6886 16.6242 14.5761C16.5116 14.4636 16.359 14.4004 16.1999 14.4004H7.7999ZM2.3999 12.0004C2.3999 9.45431 3.41133 7.01252 5.21168 5.21217C7.01203 3.41182 9.45382 2.40039 11.9999 2.40039C14.546 2.40039 16.9878 3.41182 18.7881 5.21217C20.5885 7.01252 21.5999 9.45431 21.5999 12.0004C21.5999 14.5465 20.5885 16.9883 18.7881 18.7886C16.9878 20.589 14.546 21.6004 11.9999 21.6004C9.45382 21.6004 7.01203 20.589 5.21168 18.7886C3.41133 16.9883 2.3999 14.5465 2.3999 12.0004ZM11.9999 3.60039C10.8968 3.60039 9.8045 3.81766 8.78536 4.2398C7.76623 4.66194 6.84022 5.28068 6.06021 6.06069C5.28019 6.84071 4.66145 7.76672 4.23931 8.78585C3.81717 9.80499 3.5999 10.8973 3.5999 12.0004C3.5999 13.1035 3.81717 14.1958 4.23931 15.2149C4.66145 16.2341 5.28019 17.1601 6.06021 17.9401C6.84022 18.7201 7.76623 19.3388 8.78536 19.761C9.8045 20.1831 10.8968 20.4004 11.9999 20.4004C14.2277 20.4004 16.3643 19.5154 17.9396 17.9401C19.5149 16.3648 20.3999 14.2282 20.3999 12.0004C20.3999 9.77257 19.5149 7.636 17.9396 6.06069C16.3643 4.48539 14.2277 3.60039 11.9999 3.60039Z" fill="black"/>
</svg>
