<svg width="22" height="20" viewBox="0 0 22 20" fill="none" xmlns="http://www.w3.org/2000/svg">
<path d="M10.2993 10.003H3.19558M2.99423 10.9342L1.8206 14.44C1.1778 16.3601 0.856406 17.3202 1.08705 17.9113C1.28734 18.4248 1.71754 18.814 2.24837 18.9622C2.85963 19.1328 3.78288 18.7173 5.62938 17.8864L17.4671 12.5594C19.2695 11.7483 20.1706 11.3429 20.4491 10.7795C20.6911 10.2901 20.6911 9.71574 20.4491 9.22632C20.1706 8.66307 19.2695 8.25752 17.4671 7.44646L5.60896 2.11031C3.76802 1.2819 2.84757 0.867692 2.23691 1.03761C1.70658 1.18517 1.27644 1.57338 1.07544 2.08586C0.844001 2.67596 1.16196 3.63393 1.7979 5.54988L2.99651 9.16114C3.10572 9.49019 3.16034 9.65477 3.18189 9.82297C3.20103 9.97237 3.20083 10.1235 3.18132 10.2728C3.15933 10.441 3.1043 10.6053 2.99423 10.9342Z" stroke="black" stroke-width="2" stroke-linecap="round" stroke-linejoin="round"/>
</svg>
