<svg width="81" height="21" viewBox="0 0 81 21" fill="none" xmlns="http://www.w3.org/2000/svg">
<path d="M0.300059 16.1992C0.100059 16.1992 5.8651e-05 16.0992 5.8651e-05 15.8992V2.87922C5.8651e-05 2.69522 0.0680587 2.53522 0.204059 2.39922L2.19606 0.395218C2.33206 0.267218 2.49206 0.203218 2.67606 0.203218H5.42406C5.60806 0.203218 5.76806 0.267218 5.90406 0.395218L7.92006 2.42322H8.48406L10.5001 0.395218C10.6361 0.267218 10.7961 0.203218 10.9801 0.203218H13.7161C13.9081 0.203218 14.0681 0.267218 14.1961 0.395218L16.2001 2.39922C16.3361 2.53522 16.4041 2.69522 16.4041 2.87922V15.8992C16.4041 16.0992 16.3041 16.1992 16.1041 16.1992H12.6961C12.4961 16.1992 12.3961 16.0992 12.3961 15.8992V3.39522H10.2001V15.8992C10.2001 16.0992 10.1001 16.1992 9.90006 16.1992H6.50406C6.30406 16.1992 6.20406 16.0992 6.20406 15.8992V3.39522H3.99606V15.8992C3.99606 16.0992 3.89606 16.1992 3.69606 16.1992H0.300059ZM19.5891 16.1992C19.3891 16.1992 19.2891 16.0992 19.2891 15.8992V3.29922C19.2891 3.09922 19.3891 2.99922 19.5891 2.99922H22.7811C22.9811 2.99922 23.0811 3.09922 23.0811 3.29922V15.8992C23.0811 16.0992 22.9811 16.1992 22.7811 16.1992H19.5891ZM19.5291 2.00322C19.3691 2.00322 19.2891 1.92322 19.2891 1.76322V0.239218C19.2891 0.0792184 19.3691 -0.000781536 19.5291 -0.000781536H22.8651C23.0091 -0.000781536 23.0811 0.0792184 23.0811 0.239218V1.76322C23.0811 1.92322 23.0091 2.00322 22.8651 2.00322H19.5291ZM23.9911 20.1952C23.8071 20.1952 23.7151 20.0952 23.7151 19.8952V18.0232C23.7151 17.8792 23.7751 17.7912 23.8951 17.7592L24.8551 17.4232L25.5151 16.6792C25.5871 16.6072 25.6311 16.5432 25.6471 16.4872C25.6631 16.4312 25.6711 16.3632 25.6711 16.2832V3.29922C25.6711 3.09922 25.7711 2.99922 25.9711 2.99922H29.1751C29.3751 2.99922 29.4751 3.09922 29.4751 3.29922V17.0992C29.4751 17.2992 29.4071 17.4712 29.2711 17.6152L27.8551 19.1632L26.3311 20.0152C26.1311 20.1352 25.9311 20.1952 25.7311 20.1952H23.9911ZM25.9111 2.00322C25.7511 2.00322 25.6711 1.92322 25.6711 1.76322V0.239218C25.6711 0.0792184 25.7511 -0.000781536 25.9111 -0.000781536H29.2471C29.3911 -0.000781536 29.4631 0.0792184 29.4631 0.239218V1.76322C29.4631 1.92322 29.3911 2.00322 29.2471 2.00322H25.9111ZM32.5735 16.1992C32.3735 16.1992 32.2735 16.0992 32.2735 15.8992V3.29922C32.2735 3.09922 32.3735 2.99922 32.5735 2.99922H38.9935C39.1775 2.99922 39.3375 3.06722 39.4735 3.20322L41.8735 5.60322C42.0095 5.73122 42.0775 5.89122 42.0775 6.08322V15.8992C42.0775 16.0992 41.9775 16.1992 41.7775 16.1992H38.5735C38.3735 16.1992 38.2735 16.0992 38.2735 15.8992V6.56322C38.2735 6.18722 38.0855 5.99922 37.7095 5.99922H36.0775V15.8992C36.0775 16.0992 35.9775 16.1992 35.7775 16.1992H32.5735ZM45.1829 16.1992C44.9829 16.1992 44.8829 16.0992 44.8829 15.8992V0.503218C44.8829 0.303218 44.9829 0.203218 45.1829 0.203218H51.8189C52.0109 0.203218 52.1709 0.267218 52.2989 0.395218L54.6989 2.79522C54.8349 2.93122 54.9029 3.09122 54.9029 3.27522V7.41522C54.9029 7.60722 54.8349 7.76722 54.6989 7.89522L52.2989 10.2952C52.1709 10.4312 52.0109 10.4992 51.8189 10.4992H48.8789V15.8992C48.8789 16.0992 48.7789 16.1992 48.5789 16.1992H45.1829ZM49.7789 7.23522C50.4429 7.23522 50.8949 7.10322 51.1349 6.83922C51.3829 6.57522 51.5069 6.07522 51.5069 5.33922C51.5069 4.60322 51.3829 4.10322 51.1349 3.83922C50.8949 3.57522 50.4429 3.44322 49.7789 3.44322C49.1229 3.44322 48.6709 3.57522 48.4229 3.83922C48.1829 4.10322 48.0629 4.60322 48.0629 5.33922C48.0629 6.07522 48.1829 6.57522 48.4229 6.83922C48.6709 7.10322 49.1229 7.23522 49.7789 7.23522ZM59.92 16.1992C59.728 16.1992 59.568 16.1312 59.44 15.9952L57.04 13.5952C56.904 13.4672 56.836 13.3072 56.836 13.1152V3.27522C56.836 3.09122 56.904 2.93122 57.04 2.79522L59.44 0.395218C59.568 0.267218 59.728 0.203218 59.92 0.203218H67.012C67.212 0.203218 67.312 0.303218 67.312 0.503218V3.09522C67.312 3.29522 67.212 3.39522 67.012 3.39522H61.24C61.128 3.39522 61.032 3.43522 60.952 3.51522C60.872 3.59522 60.832 3.69122 60.832 3.80322V12.5752C60.832 12.6872 60.872 12.7832 60.952 12.8632C61.032 12.9432 61.128 12.9832 61.24 12.9832H63.832V9.77922H62.296C62.096 9.77922 61.996 9.67922 61.996 9.47922V6.89922C61.996 6.69922 62.096 6.59922 62.296 6.59922H67.216C67.416 6.59922 67.516 6.69922 67.516 6.89922V13.1152C67.516 13.3072 67.448 13.4672 67.312 13.5952L64.912 15.9952C64.784 16.1312 64.624 16.1992 64.432 16.1992H59.92ZM73.1153 16.1992C72.9313 16.1992 72.7713 16.1312 72.6353 15.9952L70.2353 13.5952C70.0993 13.4672 70.0313 13.3072 70.0313 13.1152V3.27522C70.0313 3.09122 70.0993 2.93122 70.2353 2.79522L72.6353 0.395218C72.7713 0.267218 72.9313 0.203218 73.1153 0.203218H77.8313C78.0233 0.203218 78.1833 0.267218 78.3113 0.395218L80.7113 2.79522C80.8473 2.93122 80.9153 3.09122 80.9153 3.27522V13.1152C80.9153 13.3072 80.8473 13.4672 80.7113 13.5952L78.3113 15.9952C78.1833 16.1312 78.0233 16.1992 77.8313 16.1992H73.1153ZM74.5313 12.9952H76.4153C76.7513 12.9952 76.9193 12.7712 76.9193 12.3232V4.07922C76.9193 3.62322 76.7513 3.39522 76.4153 3.39522H74.5313C74.2033 3.39522 74.0393 3.62322 74.0393 4.07922V12.3232C74.0393 12.7712 74.2033 12.9952 74.5313 12.9952Z" fill="white"/>
</svg>
