<svg width="44" height="44" viewBox="0 0 44 44" fill="none" xmlns="http://www.w3.org/2000/svg">
<path d="M22 32C16.477 32 12 27.523 12 22C12 16.477 16.477 12 22 12C27.523 12 32 16.477 32 22C32 27.523 27.523 32 22 32ZM21 25V27H23V25H21ZM23 23.355C23.8037 23.1128 24.4936 22.59 24.9442 21.8817C25.3947 21.1735 25.5759 20.3271 25.4547 19.4965C25.3336 18.6659 24.9181 17.9064 24.284 17.3565C23.6499 16.8065 22.8394 16.5025 22 16.5C21.1908 16.4997 20.4065 16.7799 19.7806 17.2928C19.1547 17.8056 18.7258 18.5195 18.567 19.313L20.529 19.706C20.5847 19.4274 20.7183 19.1704 20.9144 18.9648C21.1104 18.7592 21.3608 18.6135 21.6364 18.5447C21.912 18.4759 22.2015 18.4867 22.4712 18.576C22.7409 18.6652 22.9797 18.8292 23.1598 19.0489C23.34 19.2686 23.454 19.5349 23.4887 19.8168C23.5234 20.0988 23.4773 20.3848 23.3558 20.6416C23.2343 20.8984 23.0423 21.1154 22.8023 21.2673C22.5623 21.4193 22.2841 21.5 22 21.5C21.7348 21.5 21.4804 21.6054 21.2929 21.7929C21.1054 21.9804 21 22.2348 21 22.5V24H23V23.355Z" fill="#7C81FF"/>
</svg>
