<svg width="24" height="24" viewBox="0 0 24 24" fill="none" xmlns="http://www.w3.org/2000/svg">
<path d="M16.3499 14.228H15.0529C13.2029 16.241 10.7929 16.241 8.94288 14.228H7.64988M7.26688 16.713C6.29128 16.713 5.35564 16.3254 4.66579 15.6356C3.97593 14.9457 3.58838 14.0101 3.58838 13.0345C3.58838 12.0589 3.97593 11.1233 4.66579 10.4334C5.35564 9.74356 6.29128 9.356 7.26688 9.356L8.98488 2M16.7329 16.713C17.7085 16.713 18.6441 16.3254 19.334 15.6356C20.0238 14.9457 20.4114 14.0101 20.4114 13.0345C20.4114 12.0589 20.0238 11.1233 19.334 10.4334C18.6441 9.74356 17.7085 9.356 16.7329 9.356L15.0149 2M13.5619 19.052C13.5617 19.4442 13.6389 19.8326 13.7889 20.195C13.9389 20.5574 14.1588 20.8867 14.4361 21.1641C14.7134 21.4414 15.0426 21.6615 15.405 21.8116C15.7673 21.9617 16.1557 22.039 16.5479 22.039M10.4389 19.052C10.439 19.4443 10.3618 19.8328 10.2118 20.1952C10.0617 20.5577 9.84169 20.887 9.5643 21.1644C9.2869 21.4418 8.95757 21.6618 8.59511 21.8119C8.23265 21.962 7.84417 22.0391 7.45188 22.039M16.8229 18.481C17.2059 19.489 18.4109 20.435 19.5649 20.801M7.17688 18.481C6.79388 19.489 5.58888 20.435 4.43488 20.801" stroke="black" stroke-width="1.6"/>
</svg>
