<svg width="24" height="24" viewBox="0 0 24 24" fill="none" xmlns="http://www.w3.org/2000/svg">
<path d="M2 22H21.6382M10.0753 3.90515V2M5.94557 3.90515V2.00163M14.2083 3.90515V2.00163M3.38038 14.0795C3.50098 16.4377 5.53162 18.3315 7.88494 18.5189C8.69817 18.5841 9.47392 18.6297 10.1193 18.6297C10.8038 18.6297 11.6692 18.5792 12.5769 18.5075C14.9302 18.3217 16.9609 16.4377 17.0831 14.0795C17.0983 13.7818 17.1059 13.4635 17.1059 13.1245C17.1059 11.1004 17.1402 9.39733 16.9756 7.55411C13.4439 7.22816 8.64765 7.19231 4.83898 7.44818C4.46061 7.47107 4.10404 7.633 3.83781 7.90284C3.57158 8.17268 3.41447 8.53139 3.39668 8.91004C3.33638 10.2643 3.35593 11.604 3.35593 13.1245C3.35593 13.4646 3.36408 13.7829 3.38038 14.0795Z" stroke="black" stroke-linecap="round" stroke-linejoin="round"/>
<path d="M17.0781 14.4924C17.2595 14.487 17.4432 14.4794 17.6289 14.4696C19.4917 14.3751 21.1736 12.8953 21.1736 11.0293C21.1736 9.16486 19.4917 7.69158 17.6289 7.58728L16.9771 7.55958V7.55469" stroke="black" stroke-linecap="round" stroke-linejoin="round"/>
</svg>
