<svg width="24" height="24" viewBox="0 0 24 24" fill="none" xmlns="http://www.w3.org/2000/svg">
<path d="M15.0107 11.6504C16.314 11.6504 17.1819 11.9483 17.749 12.3877C18.3216 12.831 18.519 13.3657 18.584 13.6973L18.5967 13.7871C18.6359 14.2305 18.303 14.5469 17.9766 14.6289L17.1143 14.8428V15.25C17.1143 16.2719 16.2838 17.0996 15.2607 17.0996H13.0322C12.8886 17.0996 12.7462 17.1136 12.6055 17.1416C12.1119 17.2397 11.6669 17.5066 11.3477 17.8955C11.0285 18.2844 10.8536 18.7723 10.8535 19.2754V19.9531L10.7979 19.9805H10.7959L10.7949 19.9814C10.794 19.9818 10.793 19.982 10.792 19.9824C10.79 19.9833 10.7878 19.9844 10.7852 19.9854C10.7799 19.9873 10.7732 19.9896 10.7646 19.9922C10.7474 19.9974 10.721 20.0038 10.6826 20.0117C10.606 20.0275 10.4767 20.0488 10.2607 20.0723C10.0448 20.0957 9.92031 20.1018 9.84863 20.1016C9.813 20.1015 9.78857 20.0999 9.77148 20.0977C9.76308 20.0965 9.75564 20.0954 9.74902 20.0938C9.74561 20.0929 9.74167 20.092 9.73828 20.0908C9.73668 20.0903 9.73505 20.0895 9.7334 20.0889L9.73047 20.0869H9.72852V20.0859H9.72754L9.67188 20.0596L9.66992 19.998L9.65234 19.2773V19.2754C9.65234 18.8318 9.74026 18.3922 9.91016 17.9824C10.0801 17.5727 10.3287 17.2002 10.6426 16.8867C10.9565 16.5733 11.3293 16.3246 11.7393 16.1553C12.1492 15.986 12.5887 15.8998 13.0322 15.9004H15.2607C15.6206 15.9004 15.9121 15.6087 15.9121 15.25V15.0186C15.4292 15.0634 14.7968 15.0996 14 15.0996C13.8409 15.0996 13.6887 15.0364 13.5762 14.9238C13.4636 14.8113 13.4004 14.6591 13.4004 14.5C13.4004 14.3409 13.4636 14.1887 13.5762 14.0762C13.6887 13.9636 13.8409 13.9004 14 13.9004C15.0277 13.9004 15.7524 13.8392 16.2119 13.7803C16.4423 13.7505 16.6068 13.7217 16.71 13.7012C16.7516 13.6929 16.7928 13.6829 16.834 13.6729H16.835L16.8418 13.6709C16.8652 13.6648 16.8893 13.6607 16.9131 13.6572L17.2451 13.5732C17.1804 13.4836 17.1025 13.4036 17.0137 13.3369L17.0127 13.3359C16.7179 13.1071 16.1379 12.8496 15.0107 12.8496H13.2578C11.1005 12.8497 9.35156 14.5964 9.35156 16.75V20.0635L9.23828 20.0479H9.2373L9.23535 20.0469L9.20117 20.042C9.1776 20.0382 9.1428 20.0327 9.09863 20.0244C9.01031 20.0079 8.88288 19.9816 8.72559 19.9424C8.53349 19.8945 8.34663 19.8274 8.16797 19.7422L8.11035 19.7139L8.11133 19.6504L8.15039 16.749C8.15092 13.9327 10.4371 11.6505 13.2578 11.6504H15.0107ZM8.72461 7.90039V9.09961H8.125C7.6342 9.09961 7.34455 9.22729 7.17285 9.37109L7.10645 9.43359C6.93907 9.6085 6.84961 9.86049 6.84961 10.1533C6.84975 10.5104 7.093 10.9531 7.49316 11.3994L7.7168 11.6328C7.94653 11.8596 8.19516 12.0667 8.45996 12.252L8.87402 12.5283L8.95703 12.584L8.90137 12.667L8.34668 13.499L8.29102 13.582L8.20801 13.5264L7.79199 13.249L7.79004 13.248C7.3547 12.9459 6.95552 12.5947 6.60059 12.2012C6.15698 11.7072 5.65039 10.9762 5.65039 10.1523C5.65042 9.62598 5.81184 9.05108 6.23828 8.60449L6.41113 8.44336C6.83577 8.09111 7.41473 7.90039 8.125 7.90039H8.72461Z" fill="black" stroke="black" stroke-width="0.2"/>
<path d="M10.8477 2.90039C12.4457 2.8973 14.027 3.22839 15.4893 3.87305H15.4883C16.485 4.27015 17.38 4.88122 18.1113 5.66113L18.415 6.00586L18.4199 6.01074L18.4189 6.01172C19.1191 6.98839 19.5115 8.15227 19.5439 9.35352L19.5469 9.75195C19.5462 9.88124 19.5447 10.0074 19.543 10.1309C19.5301 10.9986 19.5193 11.7422 19.9385 12.6211L19.9404 12.623C19.9503 12.6322 19.9645 12.6459 19.9824 12.6631C20.0184 12.6976 20.0695 12.7476 20.1299 12.8105C20.2508 12.9367 20.4107 13.1154 20.5654 13.3242C20.7199 13.5327 20.8717 13.7746 20.9736 14.0264C21.0752 14.2775 21.1303 14.5462 21.083 14.8057C21.0349 15.0693 20.8806 15.2805 20.6865 15.4463C20.493 15.6116 20.2548 15.7361 20.0273 15.8291C19.7993 15.9224 19.5775 15.9858 19.4131 16.0254C19.3339 16.0445 19.2673 16.0573 19.2197 16.0664C19.2068 16.9872 18.9814 17.6777 18.6104 18.1875C18.2281 18.7125 17.7 19.0373 17.1201 19.2266C15.9655 19.6033 14.5896 19.4492 13.6836 19.2705C13.3807 19.2107 13.128 19.1478 12.9512 19.0996C12.8933 19.0838 12.8436 19.0686 12.8027 19.0566V19.6504L12.7979 19.665L12.7969 19.668C12.7964 19.6693 12.7956 19.6708 12.7949 19.6729C12.7933 19.6774 12.7912 19.6845 12.7881 19.6924C12.7819 19.7082 12.7727 19.7304 12.7598 19.7578C12.7337 19.813 12.6922 19.8896 12.6309 19.9785C12.3362 20.4055 11.5865 21.0927 9.84863 21.0928V21.0918C9.25709 21.1367 8.46976 20.9676 7.7666 20.6572C7.06287 20.3466 6.41807 19.8838 6.14355 19.3252L6.13379 19.3047V16.1055C4.31388 14.7337 2.90039 12.8795 2.90039 10.4697C2.90047 8.46017 3.7388 6.534 5.22949 5.11523C6.72006 3.69666 8.74124 2.90039 10.8477 2.90039ZM7.33398 18.9512C7.49489 19.1308 7.79563 19.359 8.25098 19.5596C8.83255 19.8165 9.51053 19.9002 9.76758 19.8965H9.76953C10.7664 19.8965 11.2996 19.6184 11.4834 19.4658C11.5347 19.4236 11.5727 19.3826 11.6016 19.3486V18.9219C11.6016 18.1751 12.3307 17.647 13.04 17.877H13.041C13.0816 17.8889 13.1892 17.9218 13.2656 17.9424H13.2666C13.4218 17.9844 13.6475 18.0403 13.918 18.0938C14.4699 18.2028 15.1688 18.2913 15.8408 18.2471C16.5243 18.2028 17.0572 18.0302 17.4062 17.7334C17.7137 17.4715 18.0225 16.9917 18.0225 15.9834V15.0391L18.1064 15.0254L19.1318 14.8584C19.2819 14.8229 19.4291 14.7762 19.5723 14.7188C19.6993 14.667 19.8109 14.5957 19.8838 14.543C19.8774 14.5212 19.8703 14.4993 19.8613 14.4785V14.4775C19.7931 14.3218 19.7062 14.1748 19.6025 14.04L19.6016 14.0391C19.4977 13.9011 19.3859 13.7693 19.2666 13.6445L18.9736 13.3682L18.96 13.3555L18.9521 13.3389C18.3888 12.172 18.3237 10.9122 18.3408 10.0068L18.3438 9.38281C18.3182 8.4324 18.0108 7.51095 17.4609 6.73535H17.46C16.8252 5.97239 15.962 5.35474 15.0068 4.97168L15.0039 4.9707C13.8585 4.46593 12.6319 4.17594 11.3848 4.11328L10.8486 4.09961C9.04209 4.09961 7.31804 4.78356 6.05664 5.98438C4.79704 7.18397 4.09969 8.79855 4.09961 10.4697C4.09961 12.3665 5.20838 13.9181 6.8916 15.1758L7.29297 15.4756L7.33398 15.5059V18.9512Z" fill="black" stroke="black" stroke-width="0.2"/>
</svg>
