<svg width="24" height="24" viewBox="0 0 24 24" fill="none" xmlns="http://www.w3.org/2000/svg">
<path d="M21.5999 12.0004C21.5999 9.45431 20.5885 7.01252 18.7881 5.21217C16.9878 3.41182 14.546 2.40039 11.9999 2.40039C9.45382 2.40039 7.01203 3.41182 5.21168 5.21217C3.41133 7.01252 2.3999 9.45431 2.3999 12.0004C2.3999 14.5465 3.41133 16.9883 5.21168 18.7886C7.01203 20.589 9.45382 21.6004 11.9999 21.6004C14.546 21.6004 16.9878 20.589 18.7881 18.7886C20.5885 16.9883 21.5999 14.5465 21.5999 12.0004ZM3.5999 12.0004C3.5999 10.8973 3.81717 9.80499 4.23931 8.78585C4.66145 7.76672 5.28019 6.84071 6.06021 6.06069C6.84022 5.28068 7.76623 4.66194 8.78536 4.2398C9.8045 3.81766 10.8968 3.60039 11.9999 3.60039C13.103 3.60039 14.1953 3.81766 15.2144 4.2398C16.2336 4.66194 17.1596 5.28068 17.9396 6.06069C18.7196 6.84071 19.3384 7.76672 19.7605 8.78585C20.1826 9.80499 20.3999 10.8973 20.3999 12.0004C20.3999 14.2282 19.5149 16.3648 17.9396 17.9401C16.3643 19.5154 14.2277 20.4004 11.9999 20.4004C9.77208 20.4004 7.63551 19.5154 6.06021 17.9401C4.4849 16.3648 3.5999 14.2282 3.5999 12.0004ZM16.1999 10.2004C16.1999 9.88213 16.0735 9.57691 15.8484 9.35186C15.6234 9.12682 15.3182 9.00039 14.9999 9.00039C14.6816 9.00039 14.3764 9.12682 14.1514 9.35186C13.9263 9.57691 13.7999 9.88213 13.7999 10.2004C13.7999 10.5187 13.9263 10.8239 14.1514 11.0489C14.3764 11.274 14.6816 11.4004 14.9999 11.4004C15.3182 11.4004 15.6234 11.274 15.8484 11.0489C16.0735 10.8239 16.1999 10.5187 16.1999 10.2004ZM10.1999 10.2004C10.1999 9.88213 10.0735 9.57691 9.84843 9.35186C9.62339 9.12682 9.31816 9.00039 8.9999 9.00039C8.68164 9.00039 8.37642 9.12682 8.15137 9.35186C7.92633 9.57691 7.7999 9.88213 7.7999 10.2004C7.7999 10.5187 7.92633 10.8239 8.15137 11.0489C8.37642 11.274 8.68164 11.4004 8.9999 11.4004C9.31816 11.4004 9.62339 11.274 9.84843 11.0489C10.0735 10.8239 10.1999 10.5187 10.1999 10.2004Z" fill="black"/>
<path d="M13.605 16.1C12.805 15.0335 11.205 15.0335 10.405 16.1C10.3255 16.2061 10.207 16.2762 10.0757 16.295C9.94446 16.3137 9.81111 16.2796 9.70502 16.2C9.59894 16.1204 9.5288 16.002 9.51005 15.8707C9.4913 15.7394 9.52546 15.6061 9.60503 15.5C10.805 13.9 13.205 13.9 14.405 15.5C14.4846 15.6061 14.5188 15.7394 14.5 15.8707C14.4812 16.002 14.4111 16.1204 14.305 16.2C14.1989 16.2796 14.0656 16.3137 13.9343 16.295C13.803 16.2762 13.6846 16.2061 13.605 16.1Z" fill="black"/>
</svg>
